<svg width="25" height="25" viewBox="0 0 25 25" fill="none" xmlns="http://www.w3.org/2000/svg">
<g clip-path="url(#clip0_4111_1766)">
<path d="M21.3663 0.0447388H3.63362C1.6515 0.0447388 0.0446777 1.65156 0.0446777 3.63368V21.3663C0.0446777 23.3484 1.6515 24.9553 3.63362 24.9553H21.3663C23.3484 24.9553 24.9552 23.3484 24.9552 21.3663V3.63368C24.9552 1.65156 23.3484 0.0447388 21.3663 0.0447388Z" stroke="#048C80" stroke-miterlimit="10"/>
<path d="M13.2364 19.4417C13.7428 18.0342 14.5597 16.7099 15.6863 15.5772L15.7068 15.5566C16.8351 14.4283 18.1531 13.6095 19.5553 13.0986C20.4286 12.781 21.3341 12.5823 22.2458 12.5045C21.3368 12.4544 20.4339 12.2835 19.5633 11.9936C18.1021 11.5086 16.7331 10.6863 15.5735 9.52669C14.4148 8.36796 13.5916 6.99716 13.1066 5.53689C12.7952 4.60096 12.6225 3.62744 12.5876 2.64856L12.5501 2.68614C12.483 3.65787 12.2798 4.62243 11.9416 5.55031C11.4325 6.94616 10.6156 8.25969 9.49352 9.38532L9.48546 9.39337C8.36431 10.5145 7.05436 11.3315 5.6612 11.8424C4.72705 12.1851 3.75622 12.39 2.77823 12.458L2.7666 12.4696C3.7437 12.5045 4.71453 12.6772 5.64867 12.9868C7.11073 13.4726 8.48332 14.2949 9.64384 15.4564C10.8053 16.6178 11.6267 17.9886 12.1125 19.4515C12.423 20.3857 12.5957 21.3565 12.6306 22.3336L12.6369 22.3273C12.6986 21.3493 12.8981 20.3767 13.2346 19.4408L13.2364 19.4417Z" fill="url(#paint0_linear_4111_1766)"/>
</g>
<defs>
<linearGradient id="paint0_linear_4111_1766" x1="22.2458" y1="2.64856" x2="-5.63698" y2="22.6462" gradientUnits="userSpaceOnUse">
<stop stop-color="#AAD9D1"/>
<stop offset="1" stop-color="#017373"/>
</linearGradient>
<clipPath id="clip0_4111_1766">
<rect width="25" height="25" fill="white"/>
</clipPath>
</defs>
</svg>
