<svg width="32" height="32" viewBox="0 0 32 32" fill="none" xmlns="http://www.w3.org/2000/svg">
<rect x="0.5" y="0.5" width="31" height="31" rx="4.5" stroke="#048C80"/>
<path d="M6 17.0121H11.5051C11.685 20.3203 12.7414 23.3934 14.4444 26C9.95783 25.2978 6.45302 21.607 6 17.0121ZM6 14.988C6.45302 10.393 9.95783 6.7021 14.4444 6C12.7414 8.60658 11.685 11.6797 11.5051 14.988H6ZM26 14.988H20.4948C20.3149 11.6797 19.2586 8.60658 17.5556 6C22.0422 6.7021 25.547 10.393 26 14.988ZM26 17.0121C25.547 21.607 22.0422 25.2978 17.5556 26C19.2586 23.3934 20.3149 20.3203 20.4948 17.0121H26ZM13.5185 17.0121H18.4815C18.309 19.8284 17.4217 22.45 15.9999 24.6951C14.5782 22.45 13.6909 19.8284 13.5185 17.0121ZM13.5185 14.988C13.6909 12.1716 14.5782 9.54997 15.9999 7.30493C17.4217 9.54997 18.309 12.1716 18.4815 14.988H13.5185Z" fill="url(#paint0_linear_4111_1664)"/>
<defs>
<linearGradient id="paint0_linear_4111_1664" x1="26" y1="6" x2="-2.42317" y2="26.6005" gradientUnits="userSpaceOnUse">
<stop stop-color="#AAD9D1"/>
<stop offset="1" stop-color="#017373"/>
</linearGradient>
</defs>
</svg>
