<svg width="41" height="40" viewBox="0 0 41 40" fill="none" xmlns="http://www.w3.org/2000/svg">
<rect x="0.351074" width="40" height="40" rx="20" fill="#017373"/>
<path d="M27.4093 11.6666H13.2926C13.1339 11.6644 12.9764 11.6935 12.8289 11.7522C12.6815 11.8109 12.547 11.8981 12.4333 12.0087C12.3195 12.1194 12.2287 12.2514 12.166 12.3971C12.1032 12.5429 12.0698 12.6996 12.0676 12.8583V27.1416C12.0698 27.3003 12.1032 27.457 12.166 27.6028C12.2287 27.7486 12.3195 27.8805 12.4333 27.9912C12.547 28.1019 12.6815 28.189 12.8289 28.2477C12.9764 28.3064 13.1339 28.3355 13.2926 28.3333H27.4093C27.568 28.3355 27.7255 28.3064 27.873 28.2477C28.0204 28.189 28.1549 28.1019 28.2686 27.9912C28.3824 27.8805 28.4732 27.7486 28.536 27.6028C28.5987 27.457 28.6321 27.3003 28.6343 27.1416V12.8583C28.6321 12.6996 28.5987 12.5429 28.536 12.3971C28.4732 12.2514 28.3824 12.1194 28.2686 12.0087C28.1549 11.8981 28.0204 11.8109 27.873 11.7522C27.7255 11.6935 27.568 11.6644 27.4093 11.6666ZM17.0926 25.6166H14.5926V18.1166H17.0926V25.6166ZM15.8426 17.0666C15.4978 17.0666 15.1672 16.9297 14.9234 16.6859C14.6796 16.4421 14.5426 16.1114 14.5426 15.7666C14.5426 15.4218 14.6796 15.0912 14.9234 14.8474C15.1672 14.6036 15.4978 14.4666 15.8426 14.4666C16.0257 14.4459 16.2111 14.464 16.3867 14.5199C16.5623 14.5757 16.7241 14.668 16.8615 14.7908C16.9989 14.9135 17.1089 15.0639 17.1842 15.232C17.2595 15.4002 17.2984 15.5824 17.2984 15.7666C17.2984 15.9509 17.2595 16.133 17.1842 16.3012C17.1089 16.4694 16.9989 16.6198 16.8615 16.7425C16.7241 16.8652 16.5623 16.9575 16.3867 17.0134C16.2111 17.0692 16.0257 17.0874 15.8426 17.0666ZM26.1093 25.6166H23.6093V21.5916C23.6093 20.5833 23.251 19.925 22.3426 19.925C22.0615 19.927 21.7878 20.0152 21.5583 20.1776C21.3289 20.34 21.1547 20.5688 21.0593 20.8333C20.9941 21.0292 20.9658 21.2354 20.976 21.4416V25.6083H18.476C18.476 25.6083 18.476 18.7916 18.476 18.1083H20.976V19.1666C21.2031 18.7725 21.5334 18.4479 21.9313 18.2276C22.3293 18.0074 22.7798 17.8998 23.2343 17.9166C24.901 17.9166 26.1093 18.9916 26.1093 21.3V25.6166Z" fill="#EFECE6"/>
</svg>
