<svg width="137" height="28" viewBox="0 0 137 28" fill="none" xmlns="http://www.w3.org/2000/svg">
<rect width="28" height="28" rx="8" fill="url(#paint0_linear_4111_1432)"/>
<path fill-rule="evenodd" clip-rule="evenodd" d="M15.2103 23.2106C15.7317 23.2106 16.1931 23.2124 16.6334 23.0614C17.0727 22.9103 17.4374 22.6257 17.8482 22.3061L17.9311 22.2407L21.433 19.5172L21.5527 19.4251C22.1311 18.9765 22.646 18.5777 22.9297 17.9974C23.2134 17.4172 23.2124 16.766 23.2106 16.0338V9.33402C23.2106 8.51797 23.2106 7.81429 23.1351 7.2506C23.054 6.64731 22.8707 6.06797 22.401 5.59916C21.9313 5.12942 21.3528 4.94613 20.7495 4.86508C20.1859 4.78955 19.4822 4.78955 18.6661 4.78955H9.33402C8.51797 4.78955 7.81429 4.78955 7.2506 4.86508C6.64731 4.94613 6.06797 5.12942 5.59916 5.59916C5.12942 6.06889 4.94613 6.64731 4.86508 7.2506C4.78955 7.81429 4.78955 8.51797 4.78955 9.33402V18.6661C4.78955 19.4822 4.78955 20.1859 4.86508 20.7495C4.94613 21.3528 5.12942 21.9322 5.59916 22.401C6.06889 22.8707 6.64731 23.054 7.2506 23.1351C7.81429 23.2106 8.51797 23.2106 9.33402 23.2106H15.2103ZM19.5264 14.0001C19.5264 13.7558 19.4294 13.5215 19.2566 13.3488C19.0839 13.1761 18.8496 13.079 18.6053 13.079H14.3022C13.6271 13.079 13.079 13.6271 13.079 14.3022V18.6053C13.079 18.8496 13.1761 19.0839 13.3488 19.2566C13.5215 19.4294 13.7558 19.5264 14.0001 19.5264C14.2444 19.5264 14.4786 19.4294 14.6514 19.2566C14.8241 19.0839 14.9211 18.8496 14.9211 18.6053V14.9211H18.6053C18.8496 14.9211 19.0839 14.8241 19.2566 14.6514C19.4294 14.4786 19.5264 14.2444 19.5264 14.0001Z" fill="#EFECE6"/>
<path d="M41.3722 21C40.524 21 39.7994 20.8956 39.1986 20.6868C38.6095 20.4658 38.1147 20.1895 37.7142 19.8579C37.3254 19.514 37.0132 19.1579 36.7776 18.7895C36.5419 18.4088 36.3652 18.0526 36.2474 17.7211C36.1414 17.3772 36.0707 17.1009 36.0353 16.8921C36.0118 16.6711 36 16.5605 36 16.5605H38.7568C38.7568 16.5605 38.7804 16.6649 38.8275 16.8737C38.8864 17.0825 39.0042 17.3281 39.1809 17.6105C39.3576 17.8807 39.6286 18.1202 39.9938 18.3289C40.359 18.5254 40.8539 18.6237 41.4783 18.6237C42.244 18.6237 42.8095 18.4579 43.1748 18.1263C43.54 17.7825 43.7226 17.3772 43.7226 16.9105C43.7226 16.493 43.5812 16.1614 43.2985 15.9158C43.0275 15.6702 42.6034 15.486 42.0261 15.3632L40.2766 15.0132C39.5697 14.8781 38.91 14.6632 38.2973 14.3684C37.6965 14.0737 37.2076 13.6684 36.8306 13.1526C36.4536 12.6246 36.2651 11.9491 36.2651 11.1263C36.2651 10.2912 36.4654 9.56667 36.8659 8.95263C37.2665 8.32632 37.8261 7.84737 38.5447 7.51579C39.2752 7.17193 40.1293 7 41.1072 7C42.0261 7 42.786 7.14123 43.3868 7.42368C43.9994 7.69386 44.4825 8.03158 44.8359 8.43684C45.2011 8.82982 45.4662 9.22895 45.6311 9.63421C45.8079 10.0395 45.9198 10.3772 45.9669 10.6474C46.0258 10.9175 46.0553 11.0526 46.0553 11.0526H43.3691C43.3691 11.0526 43.3456 10.9667 43.2985 10.7947C43.2631 10.6228 43.1689 10.4263 43.0157 10.2053C42.8625 9.98421 42.6269 9.78772 42.3088 9.61579C42.0025 9.44386 41.5784 9.35789 41.0365 9.35789C40.2942 9.35789 39.7582 9.52982 39.4283 9.87368C39.0985 10.2053 38.9335 10.5675 38.9335 10.9605C38.9335 11.3658 39.0985 11.6789 39.4283 11.9C39.7582 12.1211 40.1882 12.2868 40.7184 12.3974L42.5739 12.7842C43.2808 12.9193 43.9287 13.1465 44.5178 13.4658C45.1069 13.7851 45.5722 14.2149 45.9139 14.7553C46.2673 15.2833 46.444 15.9404 46.444 16.7263C46.444 17.5368 46.2496 18.2675 45.8609 18.9184C45.4721 19.557 44.9007 20.0667 44.1467 20.4474C43.3927 20.8158 42.4679 21 41.3722 21Z" fill="#EFECE6"/>
<path d="M47.5576 20.8158V11.0526H50.2437V12.3789H50.3321C50.5324 12.0228 50.8328 11.6851 51.2334 11.3658C51.6339 11.0342 52.1818 10.8684 52.8768 10.8684C53.5837 10.8684 54.1492 11.0404 54.5733 11.3842C55.0092 11.7281 55.3273 12.1518 55.5276 12.6553H55.563C55.7161 12.3728 55.9164 12.0965 56.1638 11.8263C56.423 11.5439 56.7411 11.3167 57.1181 11.1447C57.5069 10.9605 57.9604 10.8684 58.4788 10.8684C59.1268 10.8684 59.6628 11.0219 60.0869 11.3289C60.5111 11.636 60.8233 12.0412 61.0235 12.5447C61.2356 13.036 61.3416 13.564 61.3416 14.1289V20.8158H58.6555V14.8289C58.6555 14.35 58.5377 13.957 58.3021 13.65C58.0782 13.3307 57.7366 13.1711 57.2771 13.1711C56.9237 13.1711 56.635 13.2632 56.4112 13.4474C56.1991 13.6316 56.0401 13.8711 55.9341 14.1658C55.8398 14.4482 55.7927 14.743 55.7927 15.05V20.8158H53.1066V14.8289C53.1066 14.35 52.9888 13.957 52.7531 13.65C52.5293 13.3307 52.1876 13.1711 51.7282 13.1711C51.3747 13.1711 51.0861 13.2632 50.8623 13.4474C50.6502 13.6316 50.4912 13.8711 50.3851 14.1658C50.2909 14.4482 50.2437 14.743 50.2437 15.05V20.8158H47.5576Z" fill="#EFECE6"/>
<path d="M66.7603 10.8684C67.3611 10.8684 67.8559 10.9728 68.2447 11.1816C68.6335 11.3781 68.928 11.593 69.1283 11.8263C69.3403 12.0596 69.4699 12.2193 69.5171 12.3053H69.6584V11.0526H72.3445V20.8158H69.6584V19.5632H69.5171C69.4699 19.6491 69.3403 19.8088 69.1283 20.0421C68.928 20.2754 68.6335 20.4965 68.2447 20.7053C67.8559 20.9018 67.3611 21 66.7603 21C66.0652 21 65.4584 20.8588 64.9401 20.5763C64.4335 20.2816 64.0093 19.8947 63.6677 19.4158C63.326 18.9246 63.0669 18.3781 62.8901 17.7763C62.7252 17.1746 62.6427 16.5605 62.6427 15.9342C62.6427 15.3079 62.7252 14.6939 62.8901 14.0921C63.0669 13.4904 63.326 12.95 63.6677 12.4711C64.0093 11.9798 64.4335 11.593 64.9401 11.3105C65.4584 11.0158 66.0652 10.8684 66.7603 10.8684ZM67.5378 13.1342C67.0548 13.1342 66.6483 13.2754 66.3185 13.5579C66.0004 13.8281 65.7589 14.1781 65.5939 14.6079C65.4408 15.0377 65.3642 15.4798 65.3642 15.9342C65.3642 16.3886 65.4408 16.8307 65.5939 17.2605C65.7589 17.6904 66.0004 18.0465 66.3185 18.3289C66.6483 18.5991 67.0548 18.7342 67.5378 18.7342C68.0208 18.7342 68.4214 18.5991 68.7395 18.3289C69.0694 18.0465 69.3109 17.6904 69.464 17.2605C69.629 16.8307 69.7114 16.3886 69.7114 15.9342C69.7114 15.4798 69.629 15.0377 69.464 14.6079C69.3109 14.1781 69.0694 13.8281 68.7395 13.5579C68.4214 13.2754 68.0208 13.1342 67.5378 13.1342Z" fill="#EFECE6"/>
<path d="M73.8679 20.8158V11.0526H76.5364V12.4711H76.6247C76.7307 12.2132 76.878 11.9614 77.0665 11.7158C77.255 11.4702 77.5142 11.2675 77.8441 11.1079C78.1739 10.9482 78.5981 10.8684 79.1164 10.8684C79.3756 10.8684 79.5818 10.8868 79.735 10.9237C79.8881 10.9482 79.9647 10.9605 79.9647 10.9605V13.7237C79.9647 13.7237 79.8763 13.7053 79.6996 13.6684C79.5347 13.6316 79.3167 13.6132 79.0457 13.6132C78.2093 13.6132 77.5849 13.8526 77.1725 14.3316C76.7602 14.7982 76.554 15.5658 76.554 16.6342V20.8158H73.8679Z" fill="#EFECE6"/>
<path d="M85.3823 21C84.6519 21 84.0687 20.8895 83.6328 20.6684C83.1969 20.4351 82.867 20.1465 82.6432 19.8026C82.4194 19.4465 82.2721 19.0719 82.2014 18.6789C82.1307 18.286 82.0954 17.9237 82.0954 17.5921V13.2816H80.5049V11.0526H82.0954V8.63947H84.7815V11.0526H86.7784V13.2816H84.7815V17.5184C84.7815 17.9237 84.8816 18.2368 85.0819 18.4579C85.294 18.6789 85.6415 18.7895 86.1245 18.7895C86.3366 18.7895 86.531 18.7711 86.7077 18.7342C86.8844 18.6974 86.9728 18.6789 86.9728 18.6789V20.8342C86.9728 20.8342 86.8137 20.8588 86.4957 20.9079C86.1776 20.9693 85.8065 21 85.3823 21Z" fill="#EFECE6"/>
<path d="M88.4126 20.8158V7.18421H90.9044L96.5417 15.8789V7.18421H99.2454V20.8158H96.7184L91.1164 12.3605V20.8158H88.4126Z" fill="#EFECE6"/>
<path d="M105.628 21C104.579 21 103.69 20.7667 102.959 20.3C102.229 19.8211 101.669 19.2009 101.281 18.4395C100.904 17.6658 100.715 16.8307 100.715 15.9342C100.715 15.0377 100.904 14.2088 101.281 13.4474C101.669 12.6737 102.229 12.0535 102.959 11.5868C103.69 11.1079 104.579 10.8684 105.628 10.8684C106.676 10.8684 107.566 11.1079 108.296 11.5868C109.027 12.0535 109.58 12.6737 109.957 13.4474C110.346 14.2088 110.541 15.0377 110.541 15.9342C110.541 16.8307 110.346 17.6658 109.957 18.4395C109.58 19.2009 109.027 19.8211 108.296 20.3C107.566 20.7667 106.676 21 105.628 21ZM105.628 18.7158C106.099 18.7158 106.494 18.5868 106.812 18.3289C107.142 18.0711 107.395 17.7333 107.572 17.3158C107.748 16.886 107.837 16.4254 107.837 15.9342C107.837 15.4307 107.748 14.9702 107.572 14.5526C107.395 14.1351 107.142 13.7974 106.812 13.5395C106.494 13.2816 106.099 13.1526 105.628 13.1526C105.157 13.1526 104.756 13.2816 104.426 13.5395C104.096 13.7974 103.843 14.1351 103.666 14.5526C103.501 14.9702 103.419 15.4307 103.419 15.9342C103.419 16.4254 103.501 16.886 103.666 17.3158C103.843 17.7333 104.096 18.0711 104.426 18.3289C104.756 18.5868 105.157 18.7158 105.628 18.7158Z" fill="#EFECE6"/>
<path d="M116.133 21C115.402 21 114.819 20.8895 114.383 20.6684C113.947 20.4351 113.617 20.1465 113.394 19.8026C113.17 19.4465 113.022 19.0719 112.952 18.6789C112.881 18.286 112.846 17.9237 112.846 17.5921V13.2816H111.255V11.0526H112.846V8.63947H115.532V11.0526H117.529V13.2816H115.532V17.5184C115.532 17.9237 115.632 18.2368 115.832 18.4579C116.044 18.6789 116.392 18.7895 116.875 18.7895C117.087 18.7895 117.281 18.7711 117.458 18.7342C117.635 18.6974 117.723 18.6789 117.723 18.6789V20.8342C117.723 20.8342 117.564 20.8588 117.246 20.9079C116.928 20.9693 116.557 21 116.133 21Z" fill="#EFECE6"/>
<path d="M123.514 21C122.689 21 121.976 20.8588 121.375 20.5763C120.774 20.2816 120.28 19.8947 119.891 19.4158C119.502 18.9246 119.207 18.3781 119.007 17.7763C118.819 17.1746 118.724 16.5544 118.724 15.9158C118.724 15.3018 118.813 14.7 118.99 14.1105C119.178 13.5088 119.461 12.9623 119.838 12.4711C120.227 11.9798 120.715 11.593 121.305 11.3105C121.905 11.0158 122.612 10.8684 123.425 10.8684C124.285 10.8684 125.045 11.0649 125.705 11.4579C126.376 11.8509 126.901 12.4342 127.278 13.2079C127.655 13.9693 127.843 14.8965 127.843 15.9895V16.6711H121.428C121.464 17.2605 121.658 17.7702 122.011 18.2C122.377 18.6298 122.877 18.8447 123.514 18.8447C123.879 18.8447 124.173 18.7895 124.397 18.6789C124.633 18.5561 124.815 18.4211 124.945 18.2737C125.075 18.114 125.163 17.9728 125.21 17.85C125.257 17.7272 125.281 17.6658 125.281 17.6658H127.755C127.755 17.6658 127.725 17.7825 127.666 18.0158C127.619 18.2368 127.513 18.5132 127.348 18.8447C127.183 19.1763 126.942 19.5079 126.624 19.8395C126.317 20.1711 125.911 20.4474 125.404 20.6684C124.898 20.8895 124.268 21 123.514 21ZM121.428 14.9763H125.263C125.228 14.3009 125.033 13.7974 124.68 13.4658C124.326 13.1342 123.891 12.9684 123.372 12.9684C122.854 12.9684 122.412 13.1465 122.047 13.5026C121.682 13.8465 121.475 14.3377 121.428 14.9763Z" fill="#EFECE6"/>
<path d="M133.183 21C132.405 21 131.763 20.8895 131.257 20.6684C130.75 20.4474 130.344 20.1772 130.037 19.8579C129.743 19.5263 129.519 19.2009 129.366 18.8816C129.224 18.55 129.13 18.2737 129.083 18.0526C129.048 17.8316 129.03 17.7211 129.03 17.7211H131.522C131.522 17.7211 131.539 17.7825 131.575 17.9053C131.61 18.0281 131.687 18.1693 131.804 18.3289C131.934 18.4886 132.117 18.6298 132.352 18.7526C132.588 18.8754 132.906 18.9368 133.307 18.9368C133.801 18.9368 134.137 18.8325 134.314 18.6237C134.502 18.4149 134.597 18.2061 134.597 17.9974C134.597 17.5553 134.249 17.2605 133.554 17.1132L132.282 16.8553C131.74 16.7447 131.227 16.5851 130.744 16.3763C130.273 16.1553 129.89 15.8544 129.596 15.4737C129.313 15.0807 129.171 14.5772 129.171 13.9632C129.171 13.3737 129.319 12.8456 129.613 12.3789C129.908 11.9123 130.326 11.5439 130.868 11.2737C131.422 11.0035 132.081 10.8684 132.847 10.8684C133.566 10.8684 134.161 10.9728 134.632 11.1816C135.115 11.3781 135.498 11.6298 135.781 11.9368C136.063 12.2316 136.275 12.5325 136.417 12.8395C136.558 13.1342 136.647 13.386 136.682 13.5947C136.729 13.7912 136.753 13.8895 136.753 13.8895H134.349C134.349 13.8895 134.314 13.8096 134.243 13.65C134.173 13.4781 134.025 13.3123 133.801 13.1526C133.589 12.9807 133.259 12.8947 132.812 12.8947C132.352 12.8947 132.034 12.993 131.858 13.1895C131.681 13.3737 131.592 13.5702 131.592 13.7789C131.592 14.0246 131.693 14.2088 131.893 14.3316C132.105 14.4544 132.376 14.5526 132.706 14.6263L133.925 14.8842C134.82 15.0684 135.557 15.3939 136.134 15.8605C136.711 16.3149 137 16.9781 137 17.85C137 18.4395 136.853 18.9737 136.558 19.4526C136.264 19.9316 135.834 20.3123 135.268 20.5947C134.703 20.8649 134.008 21 133.183 21Z" fill="#EFECE6"/>
<defs>
<linearGradient id="paint0_linear_4111_1432" x1="28" y1="0" x2="-11.7924" y2="28.8407" gradientUnits="userSpaceOnUse">
<stop stop-color="#AAD9D1"/>
<stop offset="1" stop-color="#017373"/>
</linearGradient>
</defs>
</svg>
