<svg width="167" height="56" viewBox="0 0 167 56" fill="none" xmlns="http://www.w3.org/2000/svg">
<rect width="167" height="56" rx="8" fill="url(#paint0_linear_4111_19)"/>
<path d="M30.5938 33.692C29.5484 33.692 28.6311 33.452 27.8418 32.972C27.0524 32.4813 26.4391 31.804 26.0018 30.94C25.5644 30.0653 25.3458 29.0573 25.3458 27.916C25.3458 26.7747 25.5644 25.7667 26.0018 24.892C26.4498 24.0173 27.0791 23.3347 27.8898 22.844C28.7111 22.3533 29.6764 22.108 30.7858 22.108C32.0444 22.108 33.0897 22.412 33.9218 23.02C34.7644 23.628 35.3084 24.4653 35.5538 25.532H34.0017C33.8524 24.86 33.4951 24.3267 32.9298 23.932C32.3751 23.5373 31.6604 23.34 30.7858 23.34C29.9644 23.34 29.2498 23.5267 28.6418 23.9C28.0338 24.2627 27.5591 24.7853 27.2178 25.468C26.8871 26.1507 26.7218 26.9667 26.7218 27.916C26.7218 28.8653 26.8871 29.6813 27.2178 30.364C27.5484 31.0467 28.0071 31.5747 28.5938 31.948C29.1804 32.3107 29.8631 32.492 30.6418 32.492C31.8364 32.492 32.7378 32.1453 33.3458 31.452C33.9538 30.748 34.3004 29.788 34.3858 28.572H31.1538V27.516H35.7618V33.5H34.5298L34.4178 31.66C34.0124 32.3107 33.5164 32.812 32.9298 33.164C32.3431 33.516 31.5644 33.692 30.5938 33.692ZM41.3751 33.692C40.6178 33.692 39.9458 33.5213 39.3591 33.18C38.7725 32.828 38.3085 32.3427 37.9671 31.724C37.6365 31.1053 37.4711 30.3747 37.4711 29.532C37.4711 28.7 37.6365 27.9747 37.9671 27.356C38.2978 26.7267 38.7565 26.2413 39.3431 25.9C39.9405 25.548 40.6285 25.372 41.4071 25.372C42.1751 25.372 42.8365 25.548 43.3911 25.9C43.9565 26.2413 44.3885 26.6947 44.6871 27.26C44.9858 27.8253 45.1351 28.4333 45.1351 29.084C45.1351 29.2013 45.1298 29.3187 45.1191 29.436C45.1191 29.5533 45.1191 29.6867 45.1191 29.836H38.7991C38.8311 30.444 38.9698 30.9507 39.2151 31.356C39.4711 31.7507 39.7858 32.0493 40.1591 32.252C40.5431 32.4547 40.9485 32.556 41.3751 32.556C41.9298 32.556 42.3938 32.428 42.7671 32.172C43.1405 31.916 43.4125 31.5693 43.5831 31.132H44.9111C44.6978 31.868 44.2871 32.4813 43.6791 32.972C43.0818 33.452 42.3138 33.692 41.3751 33.692ZM41.3751 26.508C40.7351 26.508 40.1645 26.7053 39.6631 27.1C39.1725 27.484 38.8898 28.0493 38.8151 28.796H43.8071C43.7751 28.0813 43.5298 27.5213 43.0711 27.116C42.6125 26.7107 42.0471 26.508 41.3751 26.508ZM49.7869 33.5C49.0615 33.5 48.4909 33.324 48.0749 32.972C47.6589 32.62 47.4509 31.9853 47.4509 31.068V26.7H46.0749V25.564H47.4509L47.6269 23.66H48.7949V25.564H51.1309V26.7H48.7949V31.068C48.7949 31.5693 48.8962 31.9107 49.0989 32.092C49.3015 32.2627 49.6589 32.348 50.1709 32.348H51.0029V33.5H49.7869ZM60.7208 33.692C59.8994 33.692 59.1848 33.5427 58.5768 33.244C57.9688 32.9453 57.4994 32.5293 57.1688 31.996C56.8381 31.4627 56.6728 30.844 56.6728 30.14H58.0807C58.0807 30.5773 58.1821 30.9827 58.3848 31.356C58.5874 31.7187 58.8808 32.012 59.2648 32.236C59.6594 32.4493 60.1448 32.556 60.7208 32.556C61.4781 32.556 62.0648 32.3747 62.4808 32.012C62.8968 31.6493 63.1048 31.196 63.1048 30.652C63.1048 30.204 63.0088 29.8467 62.8168 29.58C62.6248 29.3027 62.3634 29.0787 62.0328 28.908C61.7128 28.7373 61.3394 28.588 60.9128 28.46C60.4968 28.332 60.0594 28.188 59.6008 28.028C58.7368 27.7293 58.0968 27.3613 57.6808 26.924C57.2648 26.476 57.0568 25.8947 57.0568 25.18C57.0461 24.5827 57.1848 24.0547 57.4728 23.596C57.7608 23.1267 58.1661 22.764 58.6888 22.508C59.2221 22.2413 59.8514 22.108 60.5768 22.108C61.2914 22.108 61.9101 22.2413 62.4328 22.508C62.9661 22.7747 63.3768 23.1427 63.6648 23.612C63.9634 24.0813 64.1181 24.6147 64.1288 25.212H62.7208C62.7208 24.9027 62.6408 24.5987 62.4808 24.3C62.3208 23.9907 62.0754 23.74 61.7448 23.548C61.4248 23.356 61.0194 23.26 60.5288 23.26C59.9208 23.2493 59.4194 23.404 59.0248 23.724C58.6408 24.044 58.4488 24.4867 58.4488 25.052C58.4488 25.532 58.5821 25.9 58.8488 26.156C59.1261 26.412 59.5101 26.6253 60.0008 26.796C60.4914 26.956 61.0568 27.1427 61.6968 27.356C62.2301 27.548 62.7101 27.772 63.1368 28.028C63.5634 28.284 63.8941 28.6147 64.1288 29.02C64.3741 29.4253 64.4968 29.9427 64.4968 30.572C64.4968 31.1053 64.3581 31.612 64.0808 32.092C63.8034 32.5613 63.3821 32.9453 62.8168 33.244C62.2621 33.5427 61.5634 33.692 60.7208 33.692ZM69.4588 33.5C68.7334 33.5 68.1628 33.324 67.7468 32.972C67.3308 32.62 67.1228 31.9853 67.1228 31.068V26.7H65.7467V25.564H67.1228L67.2988 23.66H68.4668V25.564H70.8028V26.7H68.4668V31.068C68.4668 31.5693 68.5681 31.9107 68.7708 32.092C68.9734 32.2627 69.3308 32.348 69.8428 32.348H70.6748V33.5H69.4588ZM75.1503 33.692C74.4889 33.692 73.9396 33.58 73.5023 33.356C73.0649 33.132 72.7396 32.8333 72.5263 32.46C72.3129 32.0867 72.2063 31.6813 72.2063 31.244C72.2063 30.4333 72.5156 29.8093 73.1343 29.372C73.7529 28.9347 74.5956 28.716 75.6623 28.716H77.8063V28.62C77.8063 27.9267 77.6249 27.404 77.2623 27.052C76.8996 26.6893 76.4143 26.508 75.8063 26.508C75.2836 26.508 74.8303 26.6413 74.4463 26.908C74.0729 27.164 73.8383 27.5427 73.7423 28.044H72.3663C72.4196 27.468 72.6116 26.9827 72.9423 26.588C73.2836 26.1933 73.7049 25.8947 74.2063 25.692C74.7076 25.4787 75.2409 25.372 75.8063 25.372C76.9156 25.372 77.7476 25.6707 78.3023 26.268C78.8676 26.8547 79.1503 27.6387 79.1503 28.62V33.5H77.9503L77.8703 32.076C77.6463 32.524 77.3156 32.908 76.8783 33.228C76.4516 33.5373 75.8756 33.692 75.1503 33.692ZM75.3583 32.556C75.8703 32.556 76.3076 32.4227 76.6703 32.156C77.0436 31.8893 77.3263 31.5427 77.5183 31.116C77.7103 30.6893 77.8063 30.2413 77.8063 29.772V29.756H75.7743C74.9849 29.756 74.4249 29.8947 74.0943 30.172C73.7743 30.4387 73.6143 30.7747 73.6143 31.18C73.6143 31.596 73.7636 31.932 74.0623 32.188C74.3716 32.4333 74.8036 32.556 75.3583 32.556ZM81.1665 33.5V25.564H82.3825L82.4945 27.084C82.7398 26.5613 83.1132 26.1453 83.6145 25.836C84.1158 25.5267 84.7345 25.372 85.4705 25.372V26.78H85.1025C84.6332 26.78 84.2012 26.8653 83.8065 27.036C83.4118 27.196 83.0972 27.4733 82.8625 27.868C82.6278 28.2627 82.5105 28.8067 82.5105 29.5V33.5H81.1665ZM90.115 33.5C89.3897 33.5 88.819 33.324 88.403 32.972C87.987 32.62 87.779 31.9853 87.779 31.068V26.7H86.403V25.564H87.779L87.955 23.66H89.123V25.564H91.459V26.7H89.123V31.068C89.123 31.5693 89.2243 31.9107 89.427 32.092C89.6297 32.2627 89.987 32.348 90.499 32.348H91.331V33.5H90.115ZM96.5158 33.692C95.7584 33.692 95.0864 33.5213 94.4998 33.18C93.9131 32.828 93.4491 32.3427 93.1078 31.724C92.7771 31.1053 92.6118 30.3747 92.6118 29.532C92.6118 28.7 92.7771 27.9747 93.1078 27.356C93.4384 26.7267 93.8971 26.2413 94.4838 25.9C95.0811 25.548 95.7691 25.372 96.5477 25.372C97.3158 25.372 97.9771 25.548 98.5318 25.9C99.0971 26.2413 99.5291 26.6947 99.8278 27.26C100.126 27.8253 100.276 28.4333 100.276 29.084C100.276 29.2013 100.27 29.3187 100.26 29.436C100.26 29.5533 100.26 29.6867 100.26 29.836H93.9398C93.9718 30.444 94.1104 30.9507 94.3558 31.356C94.6118 31.7507 94.9264 32.0493 95.2998 32.252C95.6838 32.4547 96.0891 32.556 96.5158 32.556C97.0704 32.556 97.5344 32.428 97.9078 32.172C98.2811 31.916 98.5531 31.5693 98.7238 31.132H100.052C99.8384 31.868 99.4278 32.4813 98.8198 32.972C98.2224 33.452 97.4544 33.692 96.5158 33.692ZM96.5158 26.508C95.8758 26.508 95.3051 26.7053 94.8038 27.1C94.3131 27.484 94.0304 28.0493 93.9557 28.796H98.9478C98.9158 28.0813 98.6704 27.5213 98.2118 27.116C97.7531 26.7107 97.1878 26.508 96.5158 26.508ZM105.657 33.692C104.868 33.692 104.174 33.5107 103.577 33.148C102.99 32.7853 102.532 32.2893 102.201 31.66C101.881 31.0307 101.721 30.316 101.721 29.516C101.721 28.716 101.886 28.0067 102.217 27.388C102.548 26.7587 103.006 26.268 103.593 25.916C104.18 25.5533 104.873 25.372 105.673 25.372C106.324 25.372 106.9 25.5053 107.401 25.772C107.902 26.0387 108.292 26.412 108.569 26.892V21.98H109.913V33.5H108.697L108.569 32.188C108.313 32.572 107.945 32.9187 107.465 33.228C106.985 33.5373 106.382 33.692 105.657 33.692ZM105.801 32.524C106.334 32.524 106.804 32.4013 107.209 32.156C107.625 31.9 107.945 31.548 108.169 31.1C108.404 30.652 108.521 30.1293 108.521 29.532C108.521 28.9347 108.404 28.412 108.169 27.964C107.945 27.516 107.625 27.1693 107.209 26.924C106.804 26.668 106.334 26.54 105.801 26.54C105.278 26.54 104.809 26.668 104.393 26.924C103.988 27.1693 103.668 27.516 103.433 27.964C103.209 28.412 103.097 28.9347 103.097 29.532C103.097 30.1293 103.209 30.652 103.433 31.1C103.668 31.548 103.988 31.9 104.393 32.156C104.809 32.4013 105.278 32.524 105.801 32.524Z" fill="#080808"/>
<rect x="119.5" y="16.5" width="23" height="23" rx="4.5" stroke="#333333"/>
<path d="M125.606 22.4372V25.3806H131.21V22.4372H125.606Z" fill="#333333"/>
<path d="M134.153 22.4371L131.21 25.3807L131.209 25.3817L130.828 25.3818L130.828 25.763L124.471 32.1201L126.551 34.2009L133.291 27.4615L133.292 33.0466L136.235 33.046V25.3812L136.234 24.5184L136.234 24.5179L136.234 22.4387L136.233 22.4371L134.153 22.4371Z" fill="#333333"/>
<defs>
<linearGradient id="paint0_linear_4111_19" x1="167" y1="0" x2="103.172" y2="137.956" gradientUnits="userSpaceOnUse">
<stop stop-color="#AAD9D1"/>
<stop offset="1" stop-color="#017373"/>
</linearGradient>
</defs>
</svg>
