<svg width="41" height="40" viewBox="0 0 41 40" fill="none" xmlns="http://www.w3.org/2000/svg">
<rect x="0.351074" width="40" height="40" rx="20" fill="#017373"/>
<path d="M29.5177 18.0917C29.5589 16.8989 29.298 15.715 28.7593 14.65C28.3939 14.213 27.8866 13.9181 27.326 13.8167C25.0073 13.6063 22.679 13.52 20.351 13.5583C18.0316 13.5183 15.7116 13.6017 13.401 13.8083C12.9442 13.8914 12.5214 14.1057 12.1843 14.425C11.4343 15.1167 11.351 16.3 11.2677 17.3C11.1468 19.098 11.1468 20.902 11.2677 22.7C11.2918 23.2628 11.3756 23.8215 11.5177 24.3667C11.6182 24.7875 11.8215 25.1769 12.1093 25.5C12.4487 25.8362 12.8813 26.0627 13.351 26.15C15.1476 26.3718 16.9579 26.4637 18.7677 26.425C21.6843 26.4667 24.2427 26.425 27.2677 26.1917C27.7489 26.1097 28.1937 25.8829 28.5427 25.5417C28.776 25.3082 28.9502 25.0226 29.051 24.7083C29.349 23.7938 29.4954 22.8367 29.4843 21.875C29.5177 21.4083 29.5177 18.5917 29.5177 18.0917ZM18.4677 22.375V17.2167L23.401 19.8083C22.0177 20.575 20.1927 21.4417 18.4677 22.375Z" fill="#EFECE6"/>
</svg>
