<svg width="25" height="26" viewBox="0 0 25 26" fill="none" xmlns="http://www.w3.org/2000/svg">
<g clip-path="url(#clip0_4111_1836)">
<path d="M21.3663 0.737061H3.63362C1.6515 0.737061 0.0446777 2.34388 0.0446777 4.326V22.0586C0.0446777 24.0408 1.6515 25.6476 3.63362 25.6476H21.3663C23.3484 25.6476 24.9552 24.0408 24.9552 22.0586V4.326C24.9552 2.34388 23.3484 0.737061 21.3663 0.737061Z" stroke="#048C80" stroke-miterlimit="10"/>
<path d="M21.4478 13.1593V13.1637H18.648V13.0922C18.648 9.76449 15.9503 7.06675 12.6235 7.06675C12.5877 7.06675 12.5519 7.06675 12.5161 7.06764V4.24463C17.4392 4.25358 21.4299 8.23801 21.4478 13.1593Z" fill="url(#paint0_linear_4111_1836)"/>
<path d="M21.446 13.0483C21.446 12.9929 21.4433 12.9383 21.4424 12.8828C21.4442 12.9383 21.4451 12.9929 21.446 13.0483Z" fill="url(#paint1_linear_4111_1836)"/>
<path d="M21.4407 12.838C21.4389 12.7709 21.4335 12.7047 21.4299 12.6376C21.4299 12.6474 21.4317 12.6564 21.4317 12.6662C21.4362 12.7235 21.4389 12.7807 21.4407 12.838Z" fill="url(#paint2_linear_4111_1836)"/>
<path d="M21.4038 12.3102C21.4038 12.3102 21.4038 12.3084 21.4038 12.3075C21.4056 12.3308 21.4092 12.3549 21.411 12.3782C21.4101 12.3639 21.4083 12.3504 21.4065 12.337C21.4056 12.3281 21.4047 12.3191 21.4038 12.3102Z" fill="url(#paint3_linear_4111_1836)"/>
<path d="M21.4039 12.3075C21.4003 12.2663 21.3949 12.2261 21.3914 12.1858C21.394 12.2037 21.3958 12.2207 21.3985 12.2386C21.4012 12.2618 21.403 12.2842 21.4048 12.3075H21.4039Z" fill="url(#paint4_linear_4111_1836)"/>
<path d="M21.412 12.3925C21.412 12.3871 21.4111 12.3826 21.4111 12.3782C21.4138 12.397 21.4156 12.4158 21.4165 12.4345C21.4174 12.4462 21.4183 12.4569 21.4183 12.4685C21.4165 12.4435 21.4147 12.4175 21.412 12.3925Z" fill="url(#paint5_linear_4111_1836)"/>
<path d="M21.3413 11.8091C21.3404 11.8028 21.3395 11.7965 21.3386 11.7903C21.3386 11.7948 21.3404 11.7992 21.3404 11.8028C21.3404 11.8046 21.3404 11.8064 21.3404 11.8091H21.3413Z" fill="url(#paint6_linear_4111_1836)"/>
<path d="M21.3413 11.8118C21.3413 11.8118 21.3413 11.81 21.3413 11.8091C21.3503 11.8699 21.361 11.9308 21.3682 11.9925V11.9961C21.3592 11.9344 21.3512 11.8735 21.3413 11.8118Z" fill="url(#paint7_linear_4111_1836)"/>
<path d="M21.4478 13.1593C21.4478 13.1217 21.4469 13.085 21.446 13.0483C21.446 13.0743 21.4478 13.0993 21.4478 13.1253V13.1593Z" fill="url(#paint8_linear_4111_1836)"/>
<path d="M21.4478 22.1114V22.1401H18.6471C18.648 22.1195 18.648 22.0989 18.648 22.0783C18.648 21.3545 18.5201 20.6601 18.2856 20.0168C18.2803 19.9998 18.274 19.9828 18.2668 19.9658C17.9286 19.0603 17.3774 18.2576 16.675 17.6188C16.6625 17.6071 16.65 17.5964 16.6374 17.5857C15.5718 16.6327 14.1652 16.0529 12.6235 16.0529C12.5877 16.0529 12.5519 16.0529 12.5161 16.0538V13.1637C14.6985 13.1673 16.6974 13.9529 18.248 15.2548C18.2543 15.2593 18.2606 15.2646 18.2668 15.2709C19.0515 15.9321 19.7208 16.7267 20.2389 17.6188C20.2461 17.6295 20.2523 17.6403 20.2586 17.6519C21.0156 18.9645 21.4478 20.4874 21.4478 22.1114Z" fill="url(#paint9_linear_4111_1836)"/>
<path d="M12.5 13.1593V13.1637H9.70024V13.1253C9.70024 11.5809 9.11864 10.1734 8.16391 9.10683C8.15407 9.0952 8.14423 9.08446 8.13439 9.07373C7.4642 8.33643 6.61327 7.76646 5.65228 7.4336C5.63797 7.42734 5.62365 7.42287 5.60844 7.4175C5.00178 7.2126 4.35217 7.10075 3.67573 7.10075C3.63457 7.10075 3.59341 7.10075 3.55225 7.10254V4.24463H4.31907C5.6496 4.35648 6.89691 4.76091 7.99749 5.39262C8.01717 5.40336 8.03596 5.4141 8.05475 5.42573C8.97189 5.96081 9.78524 6.65426 10.4581 7.4685C10.4715 7.4855 10.485 7.5025 10.4993 7.5195C11.7502 9.05762 12.5 11.0208 12.5 13.1593Z" fill="url(#paint10_linear_4111_1836)"/>
<path d="M12.5162 19.1828V22.073H12.5001C10.8823 22.073 9.36389 21.6435 8.05483 20.8919C7.65755 20.6646 7.27906 20.4069 6.92294 20.1224C6.44156 19.7385 6.00133 19.3063 5.60941 18.833C5.29445 18.4536 5.00992 18.0474 4.76117 17.6188C3.99793 16.3088 3.55949 14.7877 3.55322 13.1637H6.59814C6.59814 13.8464 6.71267 14.5032 6.92294 15.1143C7.1869 15.8847 7.60208 16.5844 8.13447 17.1777C8.27226 17.3316 8.41811 17.4792 8.57112 17.6188C9.12856 18.1243 9.78085 18.5279 10.4994 18.7981C11.1284 19.0361 11.8075 19.1703 12.5162 19.1828Z" fill="url(#paint11_linear_4111_1836)"/>
</g>
<defs>
<linearGradient id="paint0_linear_4111_1836" x1="21.4478" y1="4.24463" x2="8.76675" y2="13.4485" gradientUnits="userSpaceOnUse">
<stop stop-color="#AAD9D1"/>
<stop offset="1" stop-color="#017373"/>
</linearGradient>
<linearGradient id="paint1_linear_4111_1836" x1="21.446" y1="12.8828" x2="21.4382" y2="12.8829" gradientUnits="userSpaceOnUse">
<stop stop-color="#AAD9D1"/>
<stop offset="1" stop-color="#017373"/>
</linearGradient>
<linearGradient id="paint2_linear_4111_1836" x1="21.4407" y1="12.6376" x2="21.4174" y2="12.6385" gradientUnits="userSpaceOnUse">
<stop stop-color="#AAD9D1"/>
<stop offset="1" stop-color="#017373"/>
</linearGradient>
<linearGradient id="paint3_linear_4111_1836" x1="21.411" y1="12.3075" x2="21.3955" y2="12.3086" gradientUnits="userSpaceOnUse">
<stop stop-color="#AAD9D1"/>
<stop offset="1" stop-color="#017373"/>
</linearGradient>
<linearGradient id="paint4_linear_4111_1836" x1="21.4048" y1="12.1858" x2="21.3759" y2="12.1881" gradientUnits="userSpaceOnUse">
<stop stop-color="#AAD9D1"/>
<stop offset="1" stop-color="#017373"/>
</linearGradient>
<linearGradient id="paint5_linear_4111_1836" x1="21.4183" y1="12.3782" x2="21.4028" y2="12.3791" gradientUnits="userSpaceOnUse">
<stop stop-color="#AAD9D1"/>
<stop offset="1" stop-color="#017373"/>
</linearGradient>
<linearGradient id="paint6_linear_4111_1836" x1="21.3413" y1="11.7903" x2="21.3356" y2="11.7909" gradientUnits="userSpaceOnUse">
<stop stop-color="#AAD9D1"/>
<stop offset="1" stop-color="#017373"/>
</linearGradient>
<linearGradient id="paint7_linear_4111_1836" x1="21.3682" y1="11.8091" x2="21.3106" y2="11.8151" gradientUnits="userSpaceOnUse">
<stop stop-color="#AAD9D1"/>
<stop offset="1" stop-color="#017373"/>
</linearGradient>
<linearGradient id="paint8_linear_4111_1836" x1="21.4478" y1="13.0483" x2="21.444" y2="13.0484" gradientUnits="userSpaceOnUse">
<stop stop-color="#AAD9D1"/>
<stop offset="1" stop-color="#017373"/>
</linearGradient>
<linearGradient id="paint9_linear_4111_1836" x1="21.4478" y1="13.1637" x2="8.71086" y2="22.3491" gradientUnits="userSpaceOnUse">
<stop stop-color="#AAD9D1"/>
<stop offset="1" stop-color="#017373"/>
</linearGradient>
<linearGradient id="paint10_linear_4111_1836" x1="12.5" y1="4.24463" x2="-0.188073" y2="13.4702" gradientUnits="userSpaceOnUse">
<stop stop-color="#AAD9D1"/>
<stop offset="1" stop-color="#017373"/>
</linearGradient>
<linearGradient id="paint11_linear_4111_1836" x1="12.5162" y1="13.1637" x2="-0.168793" y2="22.4129" gradientUnits="userSpaceOnUse">
<stop stop-color="#AAD9D1"/>
<stop offset="1" stop-color="#017373"/>
</linearGradient>
<clipPath id="clip0_4111_1836">
<rect width="25" height="25" fill="white" transform="translate(0 0.692383)"/>
</clipPath>
</defs>
</svg>
