<svg width="138" height="48" viewBox="0 0 138 48" fill="none" xmlns="http://www.w3.org/2000/svg">
<rect width="138" height="48" rx="8" fill="url(#paint0_linear_4111_1450)"/>
<path d="M29.1788 29.692C28.3681 29.692 27.6428 29.5533 27.0028 29.276C26.3734 28.9987 25.8721 28.5933 25.4988 28.06C25.1361 27.5267 24.9494 26.8813 24.9388 26.124H27.2268C27.2374 26.4547 27.3228 26.7533 27.4828 27.02C27.6428 27.2867 27.8614 27.5 28.1388 27.66C28.4268 27.8093 28.7681 27.884 29.1628 27.884C29.5041 27.884 29.7974 27.8307 30.0428 27.724C30.2988 27.6067 30.4961 27.4467 30.6348 27.244C30.7734 27.0413 30.8428 26.8013 30.8428 26.524C30.8428 26.204 30.7628 25.9373 30.6028 25.724C30.4534 25.5107 30.2401 25.3293 29.9628 25.18C29.6961 25.0307 29.3814 24.8973 29.0188 24.78C28.6668 24.652 28.2934 24.5187 27.8988 24.38C27.0134 24.092 26.3361 23.708 25.8668 23.228C25.4081 22.748 25.1788 22.1133 25.1788 21.324C25.1788 20.652 25.3388 20.076 25.6588 19.596C25.9894 19.116 26.4428 18.748 27.0188 18.492C27.5948 18.236 28.2508 18.108 28.9868 18.108C29.7441 18.108 30.4054 18.2413 30.9708 18.508C31.5468 18.764 32.0001 19.1373 32.3308 19.628C32.6721 20.1187 32.8481 20.6947 32.8588 21.356H30.5548C30.5441 21.1107 30.4694 20.8813 30.3308 20.668C30.2028 20.444 30.0214 20.268 29.7868 20.14C29.5521 20.0013 29.2748 19.932 28.9548 19.932C28.6774 19.9213 28.4214 19.964 28.1868 20.06C27.9628 20.156 27.7814 20.3 27.6428 20.492C27.5148 20.6733 27.4508 20.9027 27.4508 21.18C27.4508 21.4467 27.5148 21.6707 27.6428 21.852C27.7814 22.0333 27.9681 22.1933 28.2028 22.332C28.4374 22.46 28.7148 22.5827 29.0348 22.7C29.3548 22.8067 29.7014 22.9187 30.0748 23.036C30.6294 23.228 31.1414 23.4573 31.6108 23.724C32.0801 23.98 32.4534 24.316 32.7308 24.732C33.0081 25.148 33.1468 25.6973 33.1468 26.38C33.1468 26.9667 32.9921 27.5107 32.6828 28.012C32.3734 28.5133 31.9254 28.9187 31.3388 29.228C30.7628 29.5373 30.0428 29.692 29.1788 29.692ZM34.979 29.5V21.436H37.139V29.5H34.979ZM36.067 20.332C35.683 20.332 35.363 20.22 35.107 19.996C34.8617 19.7613 34.739 19.468 34.739 19.116C34.739 18.764 34.8617 18.476 35.107 18.252C35.363 18.0173 35.683 17.9 36.067 17.9C36.4617 17.9 36.7817 18.0173 37.027 18.252C37.283 18.476 37.411 18.764 37.411 19.116C37.411 19.468 37.283 19.7613 37.027 19.996C36.7817 20.22 36.4617 20.332 36.067 20.332ZM42.7936 33.212C42.0256 33.212 41.3536 33.116 40.7776 32.924C40.2016 32.7427 39.7536 32.46 39.4336 32.076C39.1243 31.7027 38.9696 31.2387 38.9696 30.684C38.9696 30.3107 39.0656 29.9587 39.2576 29.628C39.4496 29.2973 39.727 28.9987 40.0896 28.732C40.463 28.4547 40.927 28.22 41.4816 28.028L42.2976 29.084C41.807 29.244 41.4496 29.4413 41.2256 29.676C41.0123 29.9213 40.9056 30.1827 40.9056 30.46C40.9056 30.7053 40.9856 30.9133 41.1456 31.084C41.3163 31.2547 41.5403 31.3773 41.8176 31.452C42.1056 31.5373 42.4256 31.58 42.7776 31.58C43.119 31.58 43.4123 31.5373 43.6576 31.452C43.9136 31.3667 44.111 31.2387 44.2496 31.068C44.399 30.908 44.4736 30.716 44.4736 30.492C44.4736 30.204 44.3723 29.9693 44.1696 29.788C43.967 29.6067 43.5616 29.4947 42.9536 29.452C42.4096 29.4093 41.9243 29.3507 41.4976 29.276C41.0816 29.1907 40.7136 29.0947 40.3936 28.988C40.0736 28.8707 39.8016 28.7427 39.5776 28.604C39.3643 28.4653 39.1883 28.3267 39.0496 28.188V27.82L40.7616 25.98L42.3136 26.476L40.2976 28.46L40.9056 27.404C41.023 27.468 41.135 27.532 41.2416 27.596C41.359 27.6493 41.503 27.7027 41.6736 27.756C41.8443 27.7987 42.0683 27.8413 42.3456 27.884C42.623 27.9267 42.975 27.964 43.4016 27.996C44.1056 28.06 44.6816 28.1933 45.1296 28.396C45.5883 28.5987 45.9243 28.8707 46.1376 29.212C46.351 29.5427 46.4576 29.9533 46.4576 30.444C46.4576 30.924 46.3243 31.372 46.0576 31.788C45.8016 32.2147 45.4016 32.556 44.8576 32.812C44.3136 33.0787 43.6256 33.212 42.7936 33.212ZM42.7936 27.116C42.1216 27.116 41.5403 26.988 41.0496 26.732C40.5696 26.4653 40.1963 26.1133 39.9296 25.676C39.6736 25.228 39.5456 24.732 39.5456 24.188C39.5456 23.644 39.6736 23.1533 39.9296 22.716C40.1963 22.268 40.5696 21.9107 41.0496 21.644C41.5403 21.3773 42.1216 21.244 42.7936 21.244C43.4763 21.244 44.0576 21.3773 44.5376 21.644C45.0283 21.9107 45.4016 22.268 45.6576 22.716C45.9136 23.1533 46.0416 23.644 46.0416 24.188C46.0416 24.732 45.9136 25.228 45.6576 25.676C45.4016 26.1133 45.0283 26.4653 44.5376 26.732C44.0576 26.988 43.4763 27.116 42.7936 27.116ZM42.7936 25.468C43.2096 25.468 43.5456 25.3613 43.8016 25.148C44.0576 24.9347 44.1856 24.62 44.1856 24.204C44.1856 23.788 44.0576 23.4733 43.8016 23.26C43.5456 23.036 43.2096 22.924 42.7936 22.924C42.3883 22.924 42.0523 23.036 41.7856 23.26C41.5296 23.4733 41.4016 23.788 41.4016 24.204C41.4016 24.62 41.5296 24.9347 41.7856 25.148C42.0523 25.3613 42.3883 25.468 42.7936 25.468ZM44.1376 22.972L43.7856 21.436H47.0976V22.716L44.1376 22.972ZM48.8529 29.5V21.436H50.7569L50.9169 22.748C51.1622 22.3 51.5089 21.9373 51.9569 21.66C52.4155 21.3827 52.9595 21.244 53.5889 21.244C54.2609 21.244 54.8262 21.3827 55.2849 21.66C55.7435 21.9373 56.0902 22.3427 56.3249 22.876C56.5702 23.4093 56.6929 24.0653 56.6929 24.844V29.5H54.5489V25.052C54.5489 24.412 54.4102 23.9213 54.1329 23.58C53.8662 23.2387 53.4502 23.068 52.8849 23.068C52.5222 23.068 52.1969 23.1533 51.9089 23.324C51.6315 23.4947 51.4129 23.74 51.2529 24.06C51.0929 24.3693 51.0129 24.748 51.0129 25.196V29.5H48.8529ZM65.5015 29.692C64.8508 29.692 64.2908 29.5587 63.8215 29.292C63.3628 29.0147 63.0108 28.6147 62.7655 28.092C62.5202 27.5587 62.3975 26.9027 62.3975 26.124V21.436H64.5575V25.9C64.5575 26.5507 64.6908 27.0413 64.9575 27.372C65.2348 27.7027 65.6562 27.868 66.2215 27.868C66.5842 27.868 66.9042 27.788 67.1815 27.628C67.4588 27.4573 67.6775 27.2173 67.8375 26.908C68.0082 26.588 68.0935 26.1987 68.0935 25.74V21.436H70.2375V29.5H68.3495L68.1735 28.188C67.9388 28.6467 67.5922 29.0147 67.1335 29.292C66.6748 29.5587 66.1308 29.692 65.5015 29.692ZM72.3529 33.02V21.436H74.2729L74.5129 22.556C74.6835 22.3213 74.8862 22.108 75.1209 21.916C75.3555 21.7133 75.6329 21.5533 75.9529 21.436C76.2835 21.308 76.6675 21.244 77.1049 21.244C77.8622 21.244 78.5289 21.4307 79.1049 21.804C79.6809 22.1773 80.1342 22.684 80.4649 23.324C80.8062 23.9533 80.9769 24.6733 80.9769 25.484C80.9769 26.2947 80.8062 27.02 80.4649 27.66C80.1235 28.2893 79.6649 28.7853 79.0889 29.148C78.5129 29.5107 77.8569 29.692 77.1209 29.692C76.5235 29.692 76.0062 29.5853 75.5689 29.372C75.1422 29.148 74.7902 28.844 74.5129 28.46V33.02H72.3529ZM76.6089 27.804C77.0355 27.804 77.4089 27.708 77.7289 27.516C78.0595 27.324 78.3155 27.052 78.4969 26.7C78.6782 26.348 78.7689 25.9427 78.7689 25.484C78.7689 25.0253 78.6782 24.62 78.4969 24.268C78.3155 23.9053 78.0595 23.628 77.7289 23.436C77.4089 23.2333 77.0355 23.132 76.6089 23.132C76.1929 23.132 75.8195 23.2333 75.4889 23.436C75.1689 23.628 74.9129 23.9 74.7209 24.252C74.5395 24.604 74.4489 25.0093 74.4489 25.468C74.4489 25.9267 74.5395 26.3373 74.7209 26.7C74.9129 27.052 75.1689 27.324 75.4889 27.516C75.8195 27.708 76.1929 27.804 76.6089 27.804Z" fill="#080808"/>
<rect x="90.5" y="12.5" width="23" height="23" rx="4.5" stroke="#333333"/>
<path d="M96.6057 18.4372V21.3806H102.21V18.4372H96.6057Z" fill="#333333"/>
<path d="M105.154 18.4371L102.21 21.3807L102.209 21.3817L101.828 21.3818L101.828 21.763L95.4706 28.1201L97.5514 30.2009L104.291 23.4615L104.292 29.0466L107.235 29.046V21.3812L107.234 20.5184L107.234 20.5179L107.234 18.4387L107.233 18.4371L105.154 18.4371Z" fill="#333333"/>
<defs>
<linearGradient id="paint0_linear_4111_1450" x1="138" y1="0" x2="82.0014" y2="116.686" gradientUnits="userSpaceOnUse">
<stop stop-color="#AAD9D1"/>
<stop offset="1" stop-color="#017373"/>
</linearGradient>
</defs>
</svg>
