<svg width="32" height="32" viewBox="0 0 32 32" fill="none" xmlns="http://www.w3.org/2000/svg">
<rect x="0.5" y="0.5" width="31" height="31" rx="4.5" stroke="#048C80"/>
<path d="M6.00807 11.9031H9.03229V24H6.00807C5.45133 24 5 23.5487 5 22.9919V12.9112C5 12.3544 5.45133 11.9031 6.00807 11.9031ZM11.3437 10.5998L17.7959 4.14764C17.9732 3.97026 18.254 3.95032 18.4546 4.10081L19.3141 4.74541C19.8027 5.11187 20.0229 5.73628 19.8722 6.32815L18.7096 10.895H25.1614C26.275 10.895 27.1776 11.7977 27.1776 12.9112V15.0325C27.1776 15.2959 27.126 15.5567 27.0258 15.8001L23.9064 23.3757C23.7509 23.7534 23.3827 24 22.9742 24H12.0565C11.4998 24 11.0484 23.5487 11.0484 22.9919V11.3126C11.0484 11.0452 11.1546 10.7888 11.3437 10.5998Z" fill="url(#paint0_linear_4111_1658)"/>
<defs>
<linearGradient id="paint0_linear_4111_1658" x1="27.1776" y1="4" x2="-2.03057" y2="27.4744" gradientUnits="userSpaceOnUse">
<stop stop-color="#AAD9D1"/>
<stop offset="1" stop-color="#017373"/>
</linearGradient>
</defs>
</svg>
