<svg width="1440" height="82" viewBox="0 0 1440 82" fill="none" xmlns="http://www.w3.org/2000/svg">
<g clip-path="url(#clip0_4111_158)">
<path fill-rule="evenodd" clip-rule="evenodd" d="M117.1 44.2C116.57 44.2 116.061 43.9893 115.686 43.6142C115.311 43.2391 115.1 42.7304 115.1 42.2V33H111.1V42.2C111.1 45.5136 113.786 48.2 117.1 48.2H121.5V44.2H117.1ZM129.1 37C128.627 37 128.159 37.0931 127.722 37.274C127.286 37.455 126.889 37.7201 126.554 38.0544C126.22 38.3887 125.955 38.7856 125.774 39.2223C125.593 39.6591 125.5 40.1272 125.5 40.6C125.5 41.0728 125.593 41.5409 125.774 41.9777C125.955 42.4144 126.22 42.8113 126.554 43.1456C126.889 43.4799 127.286 43.745 127.722 43.926C128.159 44.1069 128.627 44.2 129.1 44.2C130.055 44.2 130.97 43.8207 131.646 43.1456C132.321 42.4705 132.7 41.5548 132.7 40.6C132.7 39.6452 132.321 38.7295 131.646 38.0544C130.97 37.3793 130.055 37 129.1 37ZM121.5 40.6C121.5 36.4028 124.903 33 129.1 33C133.297 33 136.7 36.4028 136.7 40.6C136.7 44.7972 133.297 48.2 129.1 48.2C124.903 48.2 121.5 44.7972 121.5 40.6ZM172.3 37C171.345 37 170.43 37.3793 169.754 38.0544C169.079 38.7295 168.7 39.6452 168.7 40.6C168.7 41.5548 169.079 42.4705 169.754 43.1456C170.43 43.8207 171.345 44.2 172.3 44.2C173.255 44.2 174.17 43.8207 174.846 43.1456C175.521 42.4705 175.9 41.5548 175.9 40.6C175.9 39.6452 175.521 38.7295 174.846 38.0544C174.17 37.3793 173.255 37 172.3 37ZM164.7 40.6C164.7 36.4028 168.103 33 172.3 33C176.497 33 179.9 36.4028 179.9 40.6C179.9 44.7972 176.497 48.2 172.3 48.2C168.103 48.2 164.7 44.7972 164.7 40.6ZM145.1 33C140.903 33 137.5 36.4028 137.5 40.6C137.5 44.7972 140.903 48.2 145.1 48.2H156.3C157.088 48.2 157.847 48.08 158.562 47.8576L160.7 49L163.007 44.6784C163.593 43.5783 163.9 42.3509 163.9 41.1044V40.6C163.9 36.4028 160.497 33 156.3 33H145.1ZM159.9 40.6C159.9 39.6452 159.521 38.7295 158.846 38.0544C158.17 37.3793 157.255 37 156.3 37H145.1C144.627 37 144.159 37.0931 143.722 37.274C143.286 37.455 142.889 37.7201 142.554 38.0544C142.22 38.3887 141.955 38.7856 141.774 39.2223C141.593 39.6591 141.5 40.1272 141.5 40.6C141.5 41.0728 141.593 41.5409 141.774 41.9777C141.955 42.4144 142.22 42.8113 142.554 43.1456C142.889 43.4799 143.286 43.745 143.722 43.926C144.159 44.1069 144.627 44.2 145.1 44.2H156.3C157.25 44.2 158.161 43.8246 158.836 43.1555C159.51 42.4864 159.893 41.5779 159.9 40.628V40.6Z" fill="#AAD9D1"/>
<path d="M181.5 34C181.5 34.2652 181.395 34.5196 181.207 34.7071C181.02 34.8946 180.765 35 180.5 35C180.235 35 179.98 34.8946 179.793 34.7071C179.605 34.5196 179.5 34.2652 179.5 34C179.5 33.7348 179.605 33.4804 179.793 33.2929C179.98 33.1054 180.235 33 180.5 33C180.765 33 181.02 33.1054 181.207 33.2929C181.395 33.4804 181.5 33.7348 181.5 34Z" fill="#AAD9D1"/>
</g>
<g clip-path="url(#clip1_4111_158)">
<path d="M270.409 49C274.777 49 278.318 45.4184 278.318 41V35.4C278.318 34.7635 278.068 34.153 277.623 33.7029C277.178 33.2529 276.575 33 275.945 33H270.805V36.5096C270.805 37.3104 270.853 38.14 271.268 38.8216C271.565 39.3101 271.963 39.7282 272.434 40.0475C272.905 40.3669 273.439 40.58 273.998 40.6724L274.15 40.6972C274.212 40.7188 274.266 40.7596 274.305 40.8139C274.343 40.8682 274.364 40.9333 274.364 41C274.364 41.0667 274.343 41.1318 274.305 41.1861C274.266 41.2404 274.212 41.2812 274.15 41.3028L273.998 41.3276C273.181 41.4627 272.425 41.8542 271.839 42.4468C271.254 43.0395 270.867 43.8033 270.733 44.6304L270.708 44.7836C270.687 44.8468 270.647 44.9016 270.593 44.9404C270.539 44.9792 270.475 45.0001 270.409 45.0001C270.343 45.0001 270.279 44.9792 270.225 44.9404C270.171 44.9016 270.131 44.8468 270.11 44.7836L270.085 44.6304C269.994 44.0643 269.783 43.5247 269.467 43.0482C269.152 42.5717 268.738 42.1695 268.255 41.8688C267.582 41.4488 266.761 41.4 265.97 41.4H262.509C262.716 45.6324 266.174 49 270.409 49Z" fill="#AAD9D1"/>
<path d="M262.5 40.6H265.97C266.761 40.6 267.582 40.5512 268.255 40.1312C268.782 39.8029 269.226 39.3544 269.55 38.8216C269.965 38.14 270.014 37.3104 270.014 36.5096V33H264.873C264.243 33 263.64 33.2529 263.195 33.7029C262.75 34.153 262.5 34.7635 262.5 35.4V40.6ZM280.871 33.8C280.871 34.0122 280.788 34.2157 280.639 34.3657C280.491 34.5157 280.29 34.6 280.08 34.6C279.87 34.6 279.669 34.5157 279.521 34.3657C279.372 34.2157 279.289 34.0122 279.289 33.8C279.289 33.5878 279.372 33.3843 279.521 33.2343C279.669 33.0843 279.87 33 280.08 33C280.29 33 280.491 33.0843 280.639 33.2343C280.788 33.3843 280.871 33.5878 280.871 33.8ZM346.222 37.8416C348.433 37.8416 349.5 39.4036 349.5 41.2128V44.6108H347.186V41.616C347.186 40.796 346.89 40.1192 346.042 40.1192C345.194 40.1192 344.911 40.796 344.911 41.616V44.6104H342.597V41.616C342.597 40.796 342.315 40.1192 341.466 40.1192C340.618 40.1192 340.322 40.796 340.322 41.616V44.6104H338.008V41.2124C338.008 39.4032 339.075 37.8412 341.286 37.8412C342.495 37.8412 343.368 38.3228 343.767 39.1168C344.191 38.3228 345.117 37.8408 346.222 37.8408V37.8416ZM333.851 42.528C334.596 42.528 334.918 41.838 334.918 41.0176V38.1016H337.231V41.304C337.231 43.2176 336.126 44.806 333.851 44.806C331.575 44.806 330.47 43.218 330.47 41.304V38.1016H332.784V41.0176C332.784 41.8376 333.105 42.528 333.851 42.528ZM327.068 44.8188C325.615 44.8188 324.677 44.3112 324.124 43.322L325.795 42.3716C326.027 42.788 326.373 42.9964 326.952 42.9964C327.428 42.9964 327.646 42.8272 327.646 42.6188C327.646 41.8248 324.253 42.632 324.253 40.1068C324.253 38.8828 325.281 37.8936 327.029 37.8936C328.559 37.8936 329.394 38.6484 329.767 39.3776L328.096 40.3408C327.955 39.9504 327.517 39.716 327.08 39.716C326.746 39.716 326.566 39.8592 326.566 40.0544C326.566 40.8616 329.96 40.1196 329.96 42.5668C329.96 43.9336 328.636 44.8188 327.068 44.8188ZM318.984 47.6048H316.67V41.3432C316.67 39.3512 318.148 37.9064 320.205 37.9064C322.21 37.9064 323.74 39.4556 323.74 41.3432C323.74 43.426 322.377 44.806 320.334 44.806C319.858 44.806 319.383 44.6628 318.984 44.4412V47.6048ZM320.205 42.606C320.938 42.606 321.426 42.0332 321.426 41.356C321.426 40.6664 320.938 40.1064 320.205 40.1064C319.472 40.1064 318.984 40.6664 318.984 41.3564C318.984 42.0332 319.472 42.606 320.205 42.606ZM314.352 37.412C313.594 37.412 312.964 36.774 312.964 36.006C312.964 35.238 313.594 34.6 314.352 34.6C315.111 34.6 315.741 35.238 315.741 36.006C315.741 36.774 315.111 37.412 314.352 37.412ZM313.196 38.1016H315.509V44.6108H313.196V38.1016ZM308.756 44.806C306.751 44.806 305.221 43.244 305.221 41.3432C305.221 39.4556 306.751 37.8936 308.756 37.8936C310.762 37.8936 312.291 39.4556 312.291 41.3432C312.291 43.244 310.762 44.806 308.756 44.806ZM308.756 42.606C309.489 42.606 309.977 42.0332 309.977 41.356C309.977 40.6664 309.489 40.0936 308.756 40.0936C308.024 40.0936 307.535 40.6664 307.535 41.356C307.535 42.0332 308.024 42.606 308.756 42.606ZM300.852 47.8C299.259 47.8 298.102 47.084 297.51 45.808L299.426 44.7668C299.631 45.2096 300.017 45.6652 300.814 45.6652C301.65 45.6652 302.202 45.1312 302.267 44.194C301.958 44.4676 301.469 44.6756 300.737 44.6756C298.95 44.6756 297.51 43.2828 297.51 41.33C297.51 39.4428 299.04 37.9064 301.045 37.9064C303.102 37.9064 304.58 39.3516 304.58 41.3432V43.9208C304.58 46.264 302.973 47.8 300.852 47.8ZM301.007 42.476C301.701 42.476 302.228 41.994 302.228 41.278C302.228 40.5752 301.701 40.1064 301.007 40.1064C300.325 40.1064 299.785 40.5752 299.785 41.2784C299.785 41.9944 300.325 42.4756 301.007 42.4756V42.476ZM293.585 44.806C291.58 44.806 290.05 43.244 290.05 41.3432C290.05 39.4556 291.58 37.8936 293.585 37.8936C295.59 37.8936 297.12 39.4556 297.12 41.3432C297.12 43.244 295.591 44.806 293.585 44.806ZM293.585 42.606C294.318 42.606 294.807 42.0332 294.807 41.356C294.807 40.6664 294.318 40.0936 293.585 40.0936C292.853 40.0936 292.364 40.6664 292.364 41.356C292.364 42.0332 292.853 42.606 293.585 42.606ZM285.837 35.824V42.3976H289.668V44.6108H285.515C284.05 44.6108 283.459 43.8296 283.459 42.5928V35.824H285.837Z" fill="#AAD9D1"/>
</g>
<g clip-path="url(#clip2_4111_158)">
<path fill-rule="evenodd" clip-rule="evenodd" d="M436.5 44.2C435.97 44.2 435.461 43.9893 435.086 43.6142C434.711 43.2391 434.5 42.7304 434.5 42.2V33H430.5V42.2C430.5 45.5136 433.186 48.2 436.5 48.2H440.9V44.2H436.5ZM448.5 37C448.027 37 447.559 37.0931 447.122 37.274C446.686 37.455 446.289 37.7201 445.954 38.0544C445.62 38.3887 445.355 38.7856 445.174 39.2223C444.993 39.6591 444.9 40.1272 444.9 40.6C444.9 41.0728 444.993 41.5409 445.174 41.9777C445.355 42.4144 445.62 42.8113 445.954 43.1456C446.289 43.4799 446.686 43.745 447.122 43.926C447.559 44.1069 448.027 44.2 448.5 44.2C449.455 44.2 450.37 43.8207 451.046 43.1456C451.721 42.4705 452.1 41.5548 452.1 40.6C452.1 39.6452 451.721 38.7295 451.046 38.0544C450.37 37.3793 449.455 37 448.5 37ZM440.9 40.6C440.9 36.4028 444.303 33 448.5 33C452.697 33 456.1 36.4028 456.1 40.6C456.1 44.7972 452.697 48.2 448.5 48.2C444.303 48.2 440.9 44.7972 440.9 40.6ZM491.7 37C490.745 37 489.83 37.3793 489.154 38.0544C488.479 38.7295 488.1 39.6452 488.1 40.6C488.1 41.5548 488.479 42.4705 489.154 43.1456C489.83 43.8207 490.745 44.2 491.7 44.2C492.655 44.2 493.57 43.8207 494.246 43.1456C494.921 42.4705 495.3 41.5548 495.3 40.6C495.3 39.6452 494.921 38.7295 494.246 38.0544C493.57 37.3793 492.655 37 491.7 37ZM484.1 40.6C484.1 36.4028 487.503 33 491.7 33C495.897 33 499.3 36.4028 499.3 40.6C499.3 44.7972 495.897 48.2 491.7 48.2C487.503 48.2 484.1 44.7972 484.1 40.6ZM464.5 33C460.303 33 456.9 36.4028 456.9 40.6C456.9 44.7972 460.303 48.2 464.5 48.2H475.7C476.488 48.2 477.247 48.08 477.962 47.8576L480.1 49L482.407 44.6784C482.993 43.5783 483.3 42.3509 483.3 41.1044V40.6C483.3 36.4028 479.897 33 475.7 33H464.5ZM479.3 40.6C479.3 39.6452 478.921 38.7295 478.246 38.0544C477.57 37.3793 476.655 37 475.7 37H464.5C464.027 37 463.559 37.0931 463.122 37.274C462.686 37.455 462.289 37.7201 461.954 38.0544C461.62 38.3887 461.355 38.7856 461.174 39.2223C460.993 39.6591 460.9 40.1272 460.9 40.6C460.9 41.0728 460.993 41.5409 461.174 41.9777C461.355 42.4144 461.62 42.8113 461.954 43.1456C462.289 43.4799 462.686 43.745 463.122 43.926C463.559 44.1069 464.027 44.2 464.5 44.2H475.7C476.65 44.2 477.561 43.8246 478.236 43.1555C478.91 42.4864 479.293 41.5779 479.3 40.628V40.6Z" fill="#AAD9D1"/>
<path d="M500.9 34C500.9 34.2652 500.795 34.5196 500.607 34.7071C500.42 34.8946 500.165 35 499.9 35C499.635 35 499.38 34.8946 499.193 34.7071C499.005 34.5196 498.9 34.2652 498.9 34C498.9 33.7348 499.005 33.4804 499.193 33.2929C499.38 33.1054 499.635 33 499.9 33C500.165 33 500.42 33.1054 500.607 33.2929C500.795 33.4804 500.9 33.7348 500.9 34Z" fill="#AAD9D1"/>
</g>
<g clip-path="url(#clip3_4111_158)">
<path d="M630.842 44.8096H632.707V37.7742H630.842V44.8096ZM630.842 36.6771H632.707V35.0039H630.842V36.6771Z" fill="#AAD9D1"/>
<path d="M633.909 47.1135H635.774V44.014H635.802C636.199 44.6175 636.844 45.0152 637.831 45.0152C639.642 45.0152 640.876 43.5752 640.876 41.2986C640.876 39.1043 639.683 37.582 637.818 37.582C636.858 37.582 636.199 38.0346 635.747 38.6518H635.706V37.774H633.909V47.1135ZM637.434 43.4655C636.323 43.4655 635.733 42.6289 635.733 41.3535C635.733 40.0918 636.199 39.0906 637.365 39.0906C638.517 39.0906 638.983 40.0232 638.983 41.3535C638.983 42.6838 638.38 43.4655 637.434 43.4655Z" fill="#AAD9D1"/>
<path d="M644.596 45.0152C646.352 45.0152 647.559 44.1649 647.559 42.7523C647.559 41.1066 646.256 40.7775 645.076 40.5306C644.075 40.3249 643.143 40.27 643.143 39.6666C643.143 39.1592 643.623 38.8849 644.35 38.8849C645.145 38.8849 645.625 39.1592 645.707 39.9135H647.394C647.257 38.5009 646.228 37.582 644.377 37.582C642.772 37.582 641.511 38.3089 641.511 39.8312C641.511 41.3672 642.745 41.71 644.007 41.9569C644.967 42.1489 645.858 42.2175 645.858 42.8895C645.858 43.3832 645.392 43.6986 644.569 43.6986C643.732 43.6986 643.156 43.342 643.033 42.5329H641.305C641.415 44.0278 642.553 45.0152 644.596 45.0152Z" fill="#AAD9D1"/>
<path d="M654.64 44.8096V37.7742H652.775V41.8336C652.775 42.7662 652.24 43.4244 651.362 43.4244C650.567 43.4244 650.197 42.9719 650.197 42.1491V37.7742H648.345V42.4645C648.345 44.0005 649.223 45.0016 650.786 45.0016C651.774 45.0016 652.322 44.6313 652.802 43.9868H652.844V44.8096H654.64Z" fill="#AAD9D1"/>
<path d="M655.846 44.8095H657.712V40.7226C657.712 39.79 658.219 39.1866 658.974 39.1866C659.659 39.1866 660.057 39.598 660.057 40.3935V44.8095H661.922V40.7226C661.922 39.79 662.402 39.1866 663.184 39.1866C663.87 39.1866 664.267 39.598 664.267 40.3935V44.8095H666.132V40.078C666.132 38.542 665.296 37.582 663.814 37.582C662.923 37.582 662.182 38.0483 661.702 38.8163H661.675C661.332 38.0758 660.619 37.582 659.728 37.582C658.754 37.582 658.068 38.0758 657.684 38.7203H657.643V37.774H655.846V44.8095Z" fill="#AAD9D1"/>
<path d="M582.23 44.8096H584.095V35.0039H582.23V44.8096Z" fill="#AAD9D1"/>
<path d="M588.655 45.0152C590.836 45.0152 592.331 43.3969 592.331 41.2986C592.331 39.2003 590.836 37.582 588.655 37.582C586.475 37.582 584.98 39.2003 584.98 41.2986C584.98 43.3969 586.475 45.0152 588.655 45.0152ZM588.655 43.5889C587.503 43.5889 586.872 42.67 586.872 41.2986C586.872 39.9272 587.503 38.9946 588.655 38.9946C589.794 38.9946 590.438 39.9272 590.438 41.2986C590.438 42.67 589.794 43.5889 588.655 43.5889Z" fill="#AAD9D1"/>
<path d="M596.297 47.2095C597.339 47.2095 598.245 46.9626 598.834 46.414C599.355 45.934 599.671 45.262 599.671 44.2746V37.774H597.874V38.5146H597.847C597.422 37.9249 596.777 37.582 595.899 37.582C594.117 37.582 592.855 38.926 592.855 41.0243C592.855 43.15 594.391 44.3843 595.954 44.3843C596.846 44.3843 597.381 44.0278 597.792 43.5615H597.833V44.3295C597.833 45.2895 597.326 45.7969 596.27 45.7969C595.406 45.7969 595.008 45.454 594.857 45.0152H593.006C593.198 46.3866 594.377 47.2095 596.297 47.2095ZM596.27 42.8895C595.31 42.8895 594.679 42.19 594.679 40.9969C594.679 39.8175 595.31 39.0769 596.256 39.0769C597.381 39.0769 597.929 39.9546 597.929 40.9832C597.929 42.0255 597.449 42.8895 596.27 42.8895Z" fill="#AAD9D1"/>
<path d="M604.204 45.0152C606.385 45.0152 607.88 43.3969 607.88 41.2986C607.88 39.2003 606.385 37.582 604.204 37.582C602.024 37.582 600.529 39.2003 600.529 41.2986C600.529 43.3969 602.024 45.0152 604.204 45.0152ZM604.204 43.5889C603.052 43.5889 602.422 42.67 602.422 41.2986C602.422 39.9272 603.052 38.9946 604.204 38.9946C605.343 38.9946 605.987 39.9272 605.987 41.2986C605.987 42.67 605.343 43.5889 604.204 43.5889Z" fill="#AAD9D1"/>
<path d="M666.81 36.619C666.81 36.3034 667.066 36.0476 667.382 36.0476H668.524C668.84 36.0476 669.096 36.3034 669.096 36.619C669.096 36.9346 668.84 37.1905 668.524 37.1905H667.382C667.066 37.1905 666.81 36.9346 666.81 36.619Z" fill="#AAD9D1"/>
<path fill-rule="evenodd" clip-rule="evenodd" d="M619.191 33C623.609 33 627.191 36.5817 627.191 41C627.191 45.4183 623.609 49 619.191 49C614.773 49 611.191 45.4183 611.191 41C611.191 36.5817 614.773 33 619.191 33ZM618.902 33.5986C617.989 33.7271 617.12 34.4604 616.446 35.687C616.25 36.0427 616.073 36.4358 615.92 36.8602C616.837 36.6297 617.844 36.4938 618.902 36.4727V33.5986ZM615.243 37.0523C615.435 36.4518 615.669 35.8994 615.939 35.4083C616.273 34.8002 616.67 34.2752 617.117 33.8719C614.686 34.5781 612.769 36.4947 612.063 38.9263C612.466 38.4791 612.991 38.0822 613.599 37.7478C614.09 37.4777 614.643 37.2436 615.243 37.0523ZM615.051 37.7284C614.821 38.6457 614.685 39.6534 614.664 40.7108H611.79C611.918 39.7982 612.652 38.9291 613.878 38.2546C614.234 38.0589 614.627 37.8823 615.051 37.7284ZM615.242 40.7108C615.266 39.5568 615.432 38.4734 615.707 37.5161C616.664 37.2412 617.748 37.075 618.902 37.0512V38.3003C618.471 39.4025 617.593 40.2805 616.491 40.7108H615.242ZM614.664 41.2892H611.79C611.918 42.2018 612.652 43.0708 613.878 43.7454C614.234 43.9411 614.627 44.1177 615.051 44.2716C614.821 43.3543 614.685 42.3466 614.664 41.2892ZM615.707 44.4839C615.432 43.5266 615.266 42.4432 615.242 41.2892H616.491C617.593 41.7195 618.471 42.5975 618.902 43.6997V44.9488C617.748 44.925 616.664 44.7588 615.707 44.4839ZM615.243 44.9477C614.643 44.7564 614.09 44.5223 613.599 44.2522C612.991 43.9178 612.466 43.5209 612.063 43.0737C612.769 45.5053 614.686 47.4219 617.117 48.1281C616.67 47.7248 616.273 47.1998 615.939 46.5917C615.669 46.1006 615.435 45.5482 615.243 44.9477ZM618.902 48.4014C617.989 48.2729 617.12 47.5396 616.446 46.313C616.25 45.9573 616.073 45.5642 615.92 45.1398C616.837 45.3703 617.844 45.5062 618.902 45.5272V48.4014ZM621.265 48.1281C621.712 47.7248 622.109 47.1998 622.443 46.5917C622.713 46.1006 622.948 45.5482 623.139 44.9477C623.739 44.7564 624.292 44.5223 624.783 44.2522C625.391 43.9178 625.916 43.5209 626.319 43.0737C625.613 45.5053 623.696 47.4219 621.265 48.1281ZM622.463 45.1398C622.309 45.5642 622.132 45.9573 621.936 46.313C621.262 47.5396 620.393 48.2729 619.48 48.4014V45.5272C620.538 45.5062 621.545 45.3703 622.463 45.1398ZM623.331 44.2716C623.755 44.1177 624.148 43.9411 624.504 43.7454C625.731 43.0709 626.464 42.2018 626.592 41.2892H623.718C623.697 42.3466 623.561 43.3543 623.331 44.2716ZM623.14 41.2892C623.116 42.4432 622.95 43.5266 622.675 44.4839C621.718 44.7588 620.634 44.925 619.48 44.9488V43.7006C619.911 42.598 620.789 41.7196 621.891 41.2892H623.14ZM623.718 40.7108H626.592C626.464 39.7982 625.731 38.9291 624.504 38.2546C624.148 38.0589 623.755 37.8823 623.331 37.7284C623.561 38.6457 623.697 39.6534 623.718 40.7108ZM622.675 37.5161C622.95 38.4734 623.116 39.5568 623.14 40.7108H621.891C620.789 40.2804 619.911 39.402 619.48 38.2994V37.0512C620.634 37.075 621.718 37.2412 622.675 37.5161ZM623.139 37.0523C623.739 37.2436 624.292 37.4777 624.783 37.7478C625.391 38.0822 625.916 38.4791 626.319 38.9263C625.613 36.4947 623.696 34.5781 621.265 33.8719C621.712 34.2752 622.109 34.8002 622.443 35.4083C622.713 35.8994 622.948 36.4518 623.139 37.0523ZM619.48 33.5986C620.393 33.7271 621.262 34.4604 621.936 35.687C622.132 36.0427 622.309 36.4358 622.463 36.8602C621.545 36.6297 620.538 36.4938 619.48 36.4727V33.5986Z" fill="#AAD9D1"/>
</g>
<g clip-path="url(#clip4_4111_158)">
<path fill-rule="evenodd" clip-rule="evenodd" d="M760.322 37.6741C759.665 37.2346 758.891 37 758.1 37V33C759.682 33 761.229 33.4692 762.545 34.3482C763.86 35.2273 764.886 36.4767 765.491 37.9385C766.097 39.4003 766.255 41.0089 765.946 42.5607C765.638 44.1126 764.876 45.538 763.757 46.6568C762.638 47.7757 761.213 48.5376 759.661 48.8463C758.109 49.155 756.5 48.9965 755.039 48.391C753.577 47.7855 752.327 46.7602 751.448 45.4446C750.569 44.129 750.1 42.5822 750.1 41H754.1C754.1 41.7911 754.335 42.5645 754.774 43.2223C755.214 43.8801 755.838 44.3928 756.569 44.6955C757.3 44.9983 758.104 45.0775 758.88 44.9231C759.656 44.7688 760.369 44.3878 760.928 43.8284C761.488 43.269 761.869 42.5563 762.023 41.7804C762.178 41.0044 762.098 40.2002 761.796 39.4693C761.493 38.7384 760.98 38.1136 760.322 37.6741Z" fill="#AAD9D1"/>
<path fill-rule="evenodd" clip-rule="evenodd" d="M754.1 33C754.1 33.5253 753.997 34.0454 753.796 34.5307C753.595 35.016 753.3 35.457 752.928 35.8284C752.557 36.1999 752.116 36.4945 751.631 36.6955C751.145 36.8965 750.625 37 750.1 37L750.1 41C751.151 41 752.191 40.7931 753.162 40.391C754.132 39.989 755.014 39.3997 755.757 38.6568C756.5 37.914 757.089 37.0321 757.491 36.0615C757.893 35.0909 758.1 34.0506 758.1 33L754.1 33Z" fill="#AAD9D1"/>
<path d="M800.348 38.781H798.407V44.9459H800.348V38.781Z" fill="#AAD9D1"/>
<path d="M798.623 37.6267C798.826 37.8296 799.079 37.9311 799.384 37.9311C799.688 37.9311 799.938 37.8296 800.132 37.6267C800.327 37.4153 800.424 37.1616 800.424 36.8656C800.424 36.5612 800.327 36.3074 800.132 36.1045C799.938 35.9015 799.688 35.8 799.384 35.8C799.079 35.8 798.826 35.9015 798.623 36.1045C798.428 36.3074 798.331 36.5612 798.331 36.8656C798.331 37.1616 798.428 37.4153 798.623 37.6267Z" fill="#AAD9D1"/>
<path d="M770.562 44.9459V35.9902H772.554V43.1954H776.525V44.9459H770.562Z" fill="#AAD9D1"/>
<path fill-rule="evenodd" clip-rule="evenodd" d="M780.111 45.0854C779.477 45.0854 778.902 44.9458 778.386 44.6668C777.878 44.3792 777.477 43.9902 777.181 43.4997C776.885 43.0092 776.737 42.4596 776.737 41.8507C776.737 41.2418 776.885 40.6964 777.181 40.2143C777.477 39.7323 777.878 39.3517 778.386 39.0727C778.893 38.7851 779.468 38.6414 780.111 38.6414C780.754 38.6414 781.329 38.7809 781.836 39.06C782.344 39.339 782.745 39.7238 783.041 40.2143C783.337 40.6964 783.485 41.2418 783.485 41.8507C783.485 42.4596 783.337 43.0092 783.041 43.4997C782.745 43.9902 782.344 44.3792 781.836 44.6668C781.329 44.9458 780.754 45.0854 780.111 45.0854ZM780.111 43.3222C780.39 43.3222 780.635 43.263 780.847 43.1446C781.058 43.0177 781.219 42.8444 781.329 42.6245C781.447 42.3962 781.506 42.1382 781.506 41.8507C781.506 41.5632 781.447 41.3137 781.329 41.1023C781.21 40.8824 781.045 40.7133 780.834 40.5949C780.631 40.468 780.39 40.4046 780.111 40.4046C779.84 40.4046 779.599 40.468 779.388 40.5949C779.177 40.7133 779.012 40.8824 778.893 41.1023C778.775 41.3222 778.716 41.5758 778.716 41.8634C778.716 42.1424 778.775 42.3962 778.893 42.6245C779.012 42.8444 779.177 43.0177 779.388 43.1446C779.599 43.263 779.84 43.3222 780.111 43.3222Z" fill="#AAD9D1"/>
<path fill-rule="evenodd" clip-rule="evenodd" d="M785.022 47.356C785.538 47.5928 786.134 47.7112 786.811 47.7112C787.471 47.7112 788.058 47.5801 788.574 47.3179C789.09 47.0558 789.496 46.6922 789.792 46.2271C790.088 45.7619 790.236 45.2123 790.236 44.578V38.7809H788.333V39.1951C788.192 39.076 788.031 38.976 787.851 38.8951C787.521 38.7344 787.145 38.6541 786.722 38.6541C786.156 38.6541 785.652 38.7894 785.213 39.06C784.773 39.3221 784.426 39.6858 784.172 40.1509C783.919 40.6076 783.792 41.1234 783.792 41.6985C783.792 42.2651 783.919 42.7809 784.172 43.2461C784.426 43.7112 784.773 44.0791 785.213 44.3497C785.652 44.6203 786.156 44.7556 786.722 44.7556C787.136 44.7556 787.513 44.6753 787.851 44.5146C788.015 44.4367 788.163 44.345 788.295 44.2394V44.6287C788.295 45.06 788.156 45.3941 787.876 45.6309C787.606 45.8677 787.23 45.986 786.747 45.986C786.358 45.986 786.024 45.9184 785.745 45.7831C785.475 45.6478 785.229 45.449 785.01 45.1869L783.817 46.3793C784.113 46.8021 784.515 47.1277 785.022 47.356ZM787.788 42.8528C787.593 42.9712 787.361 43.0304 787.09 43.0304C786.819 43.0304 786.583 42.9712 786.38 42.8528C786.185 42.7344 786.033 42.5737 785.923 42.3708C785.813 42.1594 785.758 41.9353 785.758 41.6985C785.758 41.4448 785.813 41.2165 785.923 41.0135C786.033 40.8105 786.189 40.6499 786.392 40.5315C786.595 40.4131 786.828 40.3539 787.09 40.3539C787.361 40.3539 787.593 40.4131 787.788 40.5315C787.991 40.6499 788.143 40.8105 788.244 41.0135C788.354 41.2165 788.409 41.4448 788.409 41.6985C788.409 41.9522 788.354 42.1805 788.244 42.3835C788.143 42.578 787.991 42.7344 787.788 42.8528Z" fill="#AAD9D1"/>
<path fill-rule="evenodd" clip-rule="evenodd" d="M794.32 45.0854C793.686 45.0854 793.111 44.9458 792.595 44.6668C792.088 44.3792 791.686 43.9902 791.39 43.4997C791.094 43.0092 790.946 42.4596 790.946 41.8507C790.946 41.2418 791.094 40.6964 791.39 40.2143C791.686 39.7323 792.088 39.3517 792.595 39.0727C793.102 38.7851 793.678 38.6414 794.32 38.6414C794.963 38.6414 795.538 38.7809 796.045 39.06C796.553 39.339 796.954 39.7238 797.25 40.2143C797.546 40.6964 797.694 41.2418 797.694 41.8507C797.694 42.4596 797.546 43.0092 797.25 43.4997C796.954 43.9902 796.553 44.3792 796.045 44.6668C795.538 44.9458 794.963 45.0854 794.32 45.0854ZM794.32 43.3222C794.599 43.3222 794.844 43.263 795.056 43.1446C795.267 43.0177 795.428 42.8444 795.538 42.6245C795.656 42.3962 795.716 42.1382 795.716 41.8507C795.716 41.5632 795.656 41.3137 795.538 41.1023C795.42 40.8824 795.255 40.7133 795.043 40.5949C794.84 40.468 794.599 40.4046 794.32 40.4046C794.05 40.4046 793.808 40.468 793.597 40.5949C793.386 40.7133 793.221 40.8824 793.102 41.1023C792.984 41.3222 792.925 41.5758 792.925 41.8634C792.925 42.1424 792.984 42.3962 793.102 42.6245C793.221 42.8444 793.386 43.0177 793.597 43.1446C793.808 43.263 794.05 43.3222 794.32 43.3222Z" fill="#AAD9D1"/>
<path fill-rule="evenodd" clip-rule="evenodd" d="M805.012 45.0727C804.598 45.0727 804.218 44.9924 803.871 44.8317C803.688 44.7471 803.524 44.6462 803.376 44.5288V47.5463H801.461V38.7809H803.402V39.2064C803.542 39.0913 803.699 38.9917 803.871 38.9078C804.218 38.7386 804.598 38.6541 805.012 38.6541C805.596 38.6541 806.112 38.7936 806.56 39.0727C807.017 39.3517 807.372 39.7323 807.626 40.2143C807.888 40.6964 808.019 41.2461 808.019 41.8634C808.019 42.4807 807.888 43.0304 807.626 43.5125C807.372 43.9945 807.017 44.375 806.56 44.6541C806.112 44.9332 805.596 45.0727 805.012 45.0727ZM804.658 43.3222C804.936 43.3222 805.178 43.2587 805.38 43.1319C805.592 43.0051 805.757 42.8317 805.875 42.6118C805.994 42.3919 806.053 42.1425 806.053 41.8634C806.053 41.5759 805.994 41.3222 805.875 41.1023C805.757 40.8824 805.592 40.7133 805.38 40.5949C805.178 40.468 804.941 40.4046 804.67 40.4046C804.4 40.4046 804.158 40.468 803.947 40.5949C803.744 40.7133 803.584 40.8824 803.465 41.1023C803.347 41.3222 803.288 41.5759 803.288 41.8634C803.288 42.1425 803.342 42.3919 803.452 42.6118C803.571 42.8317 803.736 43.0051 803.947 43.1319C804.158 43.2587 804.395 43.3222 804.658 43.3222Z" fill="#AAD9D1"/>
<path d="M809.918 44.9587C810.274 45.0518 810.633 45.0982 810.996 45.0982C811.766 45.0982 812.375 44.9207 812.823 44.5655C813.28 44.2103 813.508 43.7325 813.508 43.1321C813.508 42.7431 813.436 42.4302 813.292 42.1934C813.149 41.9482 812.963 41.7536 812.734 41.6099C812.506 41.4661 812.265 41.3519 812.011 41.2674C811.758 41.1828 811.516 41.1109 811.288 41.0517C811.06 40.9925 810.874 40.9249 810.73 40.8488C810.586 40.7726 810.514 40.6712 810.514 40.5443C810.514 40.4259 810.57 40.3371 810.679 40.2779C810.789 40.2103 810.954 40.1765 811.174 40.1765C811.402 40.1765 811.635 40.223 811.872 40.316C812.117 40.409 812.337 40.5697 812.531 40.798L813.635 39.6818C813.356 39.3266 812.992 39.0602 812.544 38.8826C812.104 38.6966 811.622 38.6035 811.098 38.6035C810.599 38.6035 810.164 38.6881 809.792 38.8572C809.419 39.0264 809.132 39.2589 808.929 39.5549C808.726 39.8424 808.624 40.1849 808.624 40.5824C808.624 40.9545 808.696 41.2632 808.84 41.5084C808.984 41.7452 809.17 41.9312 809.398 42.0665C809.626 42.2018 809.868 42.3076 810.121 42.3836C810.375 42.4598 810.616 42.5316 810.844 42.5993C811.072 42.6585 811.259 42.7304 811.402 42.815C811.555 42.8911 811.631 43.0052 811.631 43.1574C811.631 43.2758 811.567 43.3688 811.44 43.4365C811.322 43.5042 811.149 43.538 810.92 43.538C810.59 43.538 810.286 43.4788 810.007 43.3604C809.728 43.2336 809.487 43.0602 809.284 42.8403L808.18 43.9566C808.392 44.1849 808.646 44.3879 808.942 44.5655C809.246 44.7346 809.572 44.8657 809.918 44.9587Z" fill="#AAD9D1"/>
<path d="M817.047 45.0854C816.481 45.0854 815.978 44.9713 815.538 44.743C815.106 44.5062 814.768 44.1848 814.523 43.7789C814.278 43.3645 814.155 42.891 814.155 42.3582V38.781H816.096V42.3328C816.096 42.5442 816.13 42.726 816.198 42.8782C816.274 43.0305 816.384 43.1489 816.527 43.2334C816.671 43.318 816.844 43.3603 817.047 43.3603C817.335 43.3603 817.563 43.2715 817.732 43.0939C817.902 42.9078 817.986 42.6542 817.986 42.3328V38.781H819.927V42.3455C819.927 42.8867 819.804 43.3645 819.559 43.7789C819.314 44.1848 818.976 44.5062 818.544 44.743C818.113 44.9713 817.614 45.0854 817.047 45.0854Z" fill="#AAD9D1"/>
<path d="M822.832 38.7809H820.892V44.9459H822.832V41.3433C822.832 41.1319 822.875 40.9543 822.959 40.8105C823.052 40.6668 823.175 40.5568 823.327 40.4807C823.48 40.3961 823.653 40.3539 823.847 40.3539C824.126 40.3539 824.359 40.4427 824.545 40.6203C824.74 40.7894 824.837 41.0304 824.837 41.3433V44.9459H826.778V41.3433C826.778 41.1319 826.82 40.9543 826.904 40.8105C826.998 40.6668 827.12 40.5568 827.272 40.4807C827.424 40.3961 827.598 40.3539 827.792 40.3539C828.072 40.3539 828.304 40.4427 828.49 40.6203C828.684 40.7894 828.782 41.0304 828.782 41.3433V44.9459H830.723V41.1277C830.723 40.6118 830.613 40.1721 830.393 39.8084C830.181 39.4363 829.89 39.153 829.518 38.9585C829.154 38.7555 828.735 38.6541 828.262 38.6541C827.78 38.6541 827.344 38.7598 826.955 38.9712C826.702 39.1059 826.482 39.2797 826.292 39.4927C826.116 39.2699 825.902 39.0877 825.648 38.9458C825.31 38.7513 824.926 38.6541 824.494 38.6541C824.038 38.6541 823.628 38.7513 823.264 38.9458C823.106 39.0267 822.962 39.1237 822.832 39.2366V38.7809Z" fill="#AAD9D1"/>
</g>
<g clip-path="url(#clip5_4111_158)">
<path d="M919.809 49C924.177 49 927.718 45.4184 927.718 41V35.4C927.718 34.7635 927.468 34.153 927.023 33.7029C926.578 33.2529 925.975 33 925.346 33H920.205V36.5096C920.205 37.3104 920.253 38.14 920.668 38.8216C920.965 39.3101 921.363 39.7282 921.834 40.0475C922.305 40.3669 922.839 40.58 923.398 40.6724L923.55 40.6972C923.612 40.7188 923.666 40.7596 923.705 40.8139C923.743 40.8682 923.764 40.9333 923.764 41C923.764 41.0667 923.743 41.1318 923.705 41.1861C923.666 41.2404 923.612 41.2812 923.55 41.3028L923.398 41.3276C922.581 41.4627 921.825 41.8542 921.24 42.4468C920.654 43.0395 920.267 43.8033 920.133 44.6304L920.109 44.7836C920.087 44.8468 920.047 44.9016 919.993 44.9404C919.939 44.9792 919.875 45.0001 919.809 45.0001C919.743 45.0001 919.679 44.9792 919.625 44.9404C919.571 44.9016 919.531 44.8468 919.51 44.7836L919.485 44.6304C919.394 44.0643 919.183 43.5247 918.867 43.0482C918.552 42.5717 918.138 42.1695 917.656 41.8688C916.982 41.4488 916.161 41.4 915.37 41.4H911.91C912.116 45.6324 915.574 49 919.809 49Z" fill="#AAD9D1"/>
<path d="M911.9 40.6H915.37C916.161 40.6 916.982 40.5512 917.655 40.1312C918.182 39.8029 918.626 39.3544 918.95 38.8216C919.365 38.14 919.414 37.3104 919.414 36.5096V33H914.273C913.643 33 913.04 33.2529 912.595 33.7029C912.15 34.153 911.9 34.7635 911.9 35.4V40.6ZM930.271 33.8C930.271 34.0122 930.188 34.2157 930.039 34.3657C929.891 34.5157 929.69 34.6 929.48 34.6C929.27 34.6 929.069 34.5157 928.921 34.3657C928.772 34.2157 928.689 34.0122 928.689 33.8C928.689 33.5878 928.772 33.3843 928.921 33.2343C929.069 33.0843 929.27 33 929.48 33C929.69 33 929.891 33.0843 930.039 33.2343C930.188 33.3843 930.271 33.5878 930.271 33.8ZM995.622 37.8416C997.833 37.8416 998.9 39.4036 998.9 41.2128V44.6108H996.586V41.616C996.586 40.796 996.29 40.1192 995.442 40.1192C994.594 40.1192 994.311 40.796 994.311 41.616V44.6104H991.997V41.616C991.997 40.796 991.715 40.1192 990.866 40.1192C990.018 40.1192 989.722 40.796 989.722 41.616V44.6104H987.409V41.2124C987.409 39.4032 988.475 37.8412 990.686 37.8412C991.895 37.8412 992.769 38.3228 993.167 39.1168C993.591 38.3228 994.517 37.8408 995.622 37.8408V37.8416ZM983.251 42.528C983.996 42.528 984.318 41.838 984.318 41.0176V38.1016H986.631V41.304C986.631 43.2176 985.526 44.806 983.251 44.806C980.975 44.806 979.87 43.218 979.87 41.304V38.1016H982.184V41.0176C982.184 41.8376 982.505 42.528 983.251 42.528ZM976.468 44.8188C975.015 44.8188 974.077 44.3112 973.524 43.322L975.195 42.3716C975.427 42.788 975.773 42.9964 976.352 42.9964C976.828 42.9964 977.046 42.8272 977.046 42.6188C977.046 41.8248 973.653 42.632 973.653 40.1068C973.653 38.8828 974.681 37.8936 976.429 37.8936C977.959 37.8936 978.794 38.6484 979.167 39.3776L977.496 40.3408C977.355 39.9504 976.918 39.716 976.481 39.716C976.146 39.716 975.966 39.8592 975.966 40.0544C975.966 40.8616 979.36 40.1196 979.36 42.5668C979.36 43.9336 978.036 44.8188 976.468 44.8188ZM968.384 47.6048H966.07V41.3432C966.07 39.3512 967.548 37.9064 969.605 37.9064C971.611 37.9064 973.14 39.4556 973.14 41.3432C973.14 43.426 971.777 44.806 969.734 44.806C969.258 44.806 968.783 44.6628 968.384 44.4412V47.6048ZM969.605 42.606C970.338 42.606 970.826 42.0332 970.826 41.356C970.826 40.6664 970.338 40.1064 969.605 40.1064C968.872 40.1064 968.384 40.6664 968.384 41.3564C968.384 42.0332 968.872 42.606 969.605 42.606ZM963.752 37.412C962.994 37.412 962.364 36.774 962.364 36.006C962.364 35.238 962.994 34.6 963.752 34.6C964.511 34.6 965.141 35.238 965.141 36.006C965.141 36.774 964.511 37.412 963.752 37.412ZM962.596 38.1016H964.91V44.6108H962.596V38.1016ZM958.156 44.806C956.151 44.806 954.621 43.244 954.621 41.3432C954.621 39.4556 956.151 37.8936 958.156 37.8936C960.162 37.8936 961.691 39.4556 961.691 41.3432C961.691 43.244 960.162 44.806 958.156 44.806ZM958.156 42.606C958.889 42.606 959.378 42.0332 959.378 41.356C959.378 40.6664 958.889 40.0936 958.156 40.0936C957.424 40.0936 956.935 40.6664 956.935 41.356C956.935 42.0332 957.424 42.606 958.156 42.606ZM950.252 47.8C948.659 47.8 947.502 47.084 946.91 45.808L948.826 44.7668C949.031 45.2096 949.417 45.6652 950.214 45.6652C951.05 45.6652 951.602 45.1312 951.667 44.194C951.358 44.4676 950.869 44.6756 950.137 44.6756C948.35 44.6756 946.91 43.2828 946.91 41.33C946.91 39.4428 948.44 37.9064 950.445 37.9064C952.502 37.9064 953.98 39.3516 953.98 41.3432V43.9208C953.98 46.264 952.373 47.8 950.252 47.8ZM950.407 42.476C951.101 42.476 951.628 41.994 951.628 41.278C951.628 40.5752 951.101 40.1064 950.407 40.1064C949.725 40.1064 949.185 40.5752 949.185 41.2784C949.185 41.9944 949.725 42.4756 950.407 42.4756V42.476ZM942.986 44.806C940.98 44.806 939.45 43.244 939.45 41.3432C939.45 39.4556 940.98 37.8936 942.986 37.8936C944.99 37.8936 946.52 39.4556 946.52 41.3432C946.52 43.244 944.991 44.806 942.986 44.806ZM942.986 42.606C943.718 42.606 944.207 42.0332 944.207 41.356C944.207 40.6664 943.718 40.0936 942.986 40.0936C942.253 40.0936 941.764 40.6664 941.764 41.356C941.764 42.0332 942.253 42.606 942.986 42.606ZM935.237 35.824V42.3976H939.068V44.6108H934.915C933.45 44.6108 932.859 43.8296 932.859 42.5928V35.824H935.237Z" fill="#AAD9D1"/>
</g>
<g clip-path="url(#clip6_4111_158)">
<path fill-rule="evenodd" clip-rule="evenodd" d="M1090.12 37.6741C1089.46 37.2346 1088.69 37 1087.9 37V33C1089.48 33 1091.03 33.4692 1092.34 34.3482C1093.66 35.2273 1094.69 36.4767 1095.29 37.9385C1095.9 39.4003 1096.05 41.0089 1095.75 42.5607C1095.44 44.1126 1094.68 45.538 1093.56 46.6568C1092.44 47.7757 1091.01 48.5376 1089.46 48.8463C1087.91 49.155 1086.3 48.9965 1084.84 48.391C1083.38 47.7855 1082.13 46.7602 1081.25 45.4446C1080.37 44.129 1079.9 42.5822 1079.9 41H1083.9C1083.9 41.7911 1084.13 42.5645 1084.57 43.2223C1085.01 43.8801 1085.64 44.3928 1086.37 44.6955C1087.1 44.9983 1087.9 45.0775 1088.68 44.9231C1089.46 44.7688 1090.17 44.3878 1090.73 43.8284C1091.29 43.269 1091.67 42.5563 1091.82 41.7804C1091.98 41.0044 1091.9 40.2002 1091.6 39.4693C1091.29 38.7384 1090.78 38.1136 1090.12 37.6741Z" fill="#AAD9D1"/>
<path fill-rule="evenodd" clip-rule="evenodd" d="M1083.9 33C1083.9 33.5253 1083.8 34.0454 1083.6 34.5307C1083.39 35.016 1083.1 35.457 1082.73 35.8284C1082.36 36.1999 1081.92 36.4945 1081.43 36.6955C1080.95 36.8965 1080.43 37 1079.9 37L1079.9 41C1080.95 41 1081.99 40.7931 1082.96 40.391C1083.93 39.989 1084.81 39.3997 1085.56 38.6568C1086.3 37.914 1086.89 37.0321 1087.29 36.0615C1087.69 35.0909 1087.9 34.0506 1087.9 33L1083.9 33Z" fill="#AAD9D1"/>
<path d="M1130.15 38.781H1128.21V44.9459H1130.15V38.781Z" fill="#AAD9D1"/>
<path d="M1128.42 37.6267C1128.63 37.8296 1128.88 37.9311 1129.18 37.9311C1129.49 37.9311 1129.74 37.8296 1129.93 37.6267C1130.13 37.4153 1130.22 37.1616 1130.22 36.8656C1130.22 36.5612 1130.13 36.3074 1129.93 36.1045C1129.74 35.9015 1129.49 35.8 1129.18 35.8C1128.88 35.8 1128.63 35.9015 1128.42 36.1045C1128.23 36.3074 1128.13 36.5612 1128.13 36.8656C1128.13 37.1616 1128.23 37.4153 1128.42 37.6267Z" fill="#AAD9D1"/>
<path d="M1100.36 44.9459V35.9902H1102.35V43.1954H1106.32V44.9459H1100.36Z" fill="#AAD9D1"/>
<path fill-rule="evenodd" clip-rule="evenodd" d="M1109.91 45.0854C1109.28 45.0854 1108.7 44.9458 1108.19 44.6668C1107.68 44.3792 1107.28 43.9902 1106.98 43.4997C1106.68 43.0092 1106.54 42.4596 1106.54 41.8507C1106.54 41.2418 1106.68 40.6964 1106.98 40.2143C1107.28 39.7323 1107.68 39.3517 1108.19 39.0727C1108.69 38.7851 1109.27 38.6414 1109.91 38.6414C1110.55 38.6414 1111.13 38.7809 1111.64 39.06C1112.14 39.339 1112.55 39.7238 1112.84 40.2143C1113.14 40.6964 1113.29 41.2418 1113.29 41.8507C1113.29 42.4596 1113.14 43.0092 1112.84 43.4997C1112.55 43.9902 1112.14 44.3792 1111.64 44.6668C1111.13 44.9458 1110.55 45.0854 1109.91 45.0854ZM1109.91 43.3222C1110.19 43.3222 1110.44 43.263 1110.65 43.1446C1110.86 43.0177 1111.02 42.8444 1111.13 42.6245C1111.25 42.3962 1111.31 42.1382 1111.31 41.8507C1111.31 41.5632 1111.25 41.3137 1111.13 41.1023C1111.01 40.8824 1110.85 40.7133 1110.63 40.5949C1110.43 40.468 1110.19 40.4046 1109.91 40.4046C1109.64 40.4046 1109.4 40.468 1109.19 40.5949C1108.98 40.7133 1108.81 40.8824 1108.69 41.1023C1108.57 41.3222 1108.52 41.5758 1108.52 41.8634C1108.52 42.1424 1108.57 42.3962 1108.69 42.6245C1108.81 42.8444 1108.98 43.0177 1109.19 43.1446C1109.4 43.263 1109.64 43.3222 1109.91 43.3222Z" fill="#AAD9D1"/>
<path fill-rule="evenodd" clip-rule="evenodd" d="M1114.82 47.356C1115.34 47.5928 1115.93 47.7112 1116.61 47.7112C1117.27 47.7112 1117.86 47.5801 1118.37 47.3179C1118.89 47.0558 1119.3 46.6922 1119.59 46.2271C1119.89 45.7619 1120.04 45.2123 1120.04 44.578V38.7809H1118.13V39.1951C1117.99 39.076 1117.83 38.976 1117.65 38.8951C1117.32 38.7344 1116.94 38.6541 1116.52 38.6541C1115.96 38.6541 1115.45 38.7894 1115.01 39.06C1114.57 39.3221 1114.23 39.6858 1113.97 40.1509C1113.72 40.6076 1113.59 41.1234 1113.59 41.6985C1113.59 42.2651 1113.72 42.7809 1113.97 43.2461C1114.23 43.7112 1114.57 44.0791 1115.01 44.3497C1115.45 44.6203 1115.96 44.7556 1116.52 44.7556C1116.94 44.7556 1117.31 44.6753 1117.65 44.5146C1117.81 44.4367 1117.96 44.345 1118.1 44.2394V44.6287C1118.1 45.06 1117.96 45.3941 1117.68 45.6309C1117.41 45.8677 1117.03 45.986 1116.55 45.986C1116.16 45.986 1115.82 45.9184 1115.55 45.7831C1115.27 45.6478 1115.03 45.449 1114.81 45.1869L1113.62 46.3793C1113.91 46.8021 1114.31 47.1277 1114.82 47.356ZM1117.59 42.8528C1117.39 42.9712 1117.16 43.0304 1116.89 43.0304C1116.62 43.0304 1116.38 42.9712 1116.18 42.8528C1115.99 42.7344 1115.83 42.5737 1115.72 42.3708C1115.61 42.1594 1115.56 41.9353 1115.56 41.6985C1115.56 41.4448 1115.61 41.2165 1115.72 41.0135C1115.83 40.8105 1115.99 40.6499 1116.19 40.5315C1116.4 40.4131 1116.63 40.3539 1116.89 40.3539C1117.16 40.3539 1117.39 40.4131 1117.59 40.5315C1117.79 40.6499 1117.94 40.8105 1118.04 41.0135C1118.15 41.2165 1118.21 41.4448 1118.21 41.6985C1118.21 41.9522 1118.15 42.1805 1118.04 42.3835C1117.94 42.578 1117.79 42.7344 1117.59 42.8528Z" fill="#AAD9D1"/>
<path fill-rule="evenodd" clip-rule="evenodd" d="M1124.12 45.0854C1123.49 45.0854 1122.91 44.9458 1122.4 44.6668C1121.89 44.3792 1121.49 43.9902 1121.19 43.4997C1120.89 43.0092 1120.75 42.4596 1120.75 41.8507C1120.75 41.2418 1120.89 40.6964 1121.19 40.2143C1121.49 39.7323 1121.89 39.3517 1122.4 39.0727C1122.9 38.7851 1123.48 38.6414 1124.12 38.6414C1124.76 38.6414 1125.34 38.7809 1125.85 39.06C1126.35 39.339 1126.75 39.7238 1127.05 40.2143C1127.35 40.6964 1127.49 41.2418 1127.49 41.8507C1127.49 42.4596 1127.35 43.0092 1127.05 43.4997C1126.75 43.9902 1126.35 44.3792 1125.85 44.6668C1125.34 44.9458 1124.76 45.0854 1124.12 45.0854ZM1124.12 43.3222C1124.4 43.3222 1124.64 43.263 1124.86 43.1446C1125.07 43.0177 1125.23 42.8444 1125.34 42.6245C1125.46 42.3962 1125.52 42.1382 1125.52 41.8507C1125.52 41.5632 1125.46 41.3137 1125.34 41.1023C1125.22 40.8824 1125.05 40.7133 1124.84 40.5949C1124.64 40.468 1124.4 40.4046 1124.12 40.4046C1123.85 40.4046 1123.61 40.468 1123.4 40.5949C1123.19 40.7133 1123.02 40.8824 1122.9 41.1023C1122.78 41.3222 1122.72 41.5758 1122.72 41.8634C1122.72 42.1424 1122.78 42.3962 1122.9 42.6245C1123.02 42.8444 1123.19 43.0177 1123.4 43.1446C1123.61 43.263 1123.85 43.3222 1124.12 43.3222Z" fill="#AAD9D1"/>
<path fill-rule="evenodd" clip-rule="evenodd" d="M1134.81 45.0727C1134.4 45.0727 1134.02 44.9924 1133.67 44.8317C1133.49 44.7471 1133.32 44.6462 1133.18 44.5288V47.5463H1131.26V38.7809H1133.2V39.2064C1133.34 39.0913 1133.5 38.9917 1133.67 38.9078C1134.02 38.7386 1134.4 38.6541 1134.81 38.6541C1135.4 38.6541 1135.91 38.7936 1136.36 39.0727C1136.82 39.3517 1137.17 39.7323 1137.43 40.2143C1137.69 40.6964 1137.82 41.2461 1137.82 41.8634C1137.82 42.4807 1137.69 43.0304 1137.43 43.5125C1137.17 43.9945 1136.82 44.375 1136.36 44.6541C1135.91 44.9332 1135.4 45.0727 1134.81 45.0727ZM1134.46 43.3222C1134.74 43.3222 1134.98 43.2587 1135.18 43.1319C1135.39 43.0051 1135.56 42.8317 1135.68 42.6118C1135.79 42.3919 1135.85 42.1425 1135.85 41.8634C1135.85 41.5759 1135.79 41.3222 1135.68 41.1023C1135.56 40.8824 1135.39 40.7133 1135.18 40.5949C1134.98 40.468 1134.74 40.4046 1134.47 40.4046C1134.2 40.4046 1133.96 40.468 1133.75 40.5949C1133.54 40.7133 1133.38 40.8824 1133.27 41.1023C1133.15 41.3222 1133.09 41.5759 1133.09 41.8634C1133.09 42.1425 1133.14 42.3919 1133.25 42.6118C1133.37 42.8317 1133.54 43.0051 1133.75 43.1319C1133.96 43.2587 1134.2 43.3222 1134.46 43.3222Z" fill="#AAD9D1"/>
<path d="M1139.72 44.9587C1140.07 45.0518 1140.43 45.0982 1140.8 45.0982C1141.57 45.0982 1142.17 44.9207 1142.62 44.5655C1143.08 44.2103 1143.31 43.7325 1143.31 43.1321C1143.31 42.7431 1143.24 42.4302 1143.09 42.1934C1142.95 41.9482 1142.76 41.7536 1142.53 41.6099C1142.31 41.4661 1142.06 41.3519 1141.81 41.2674C1141.56 41.1828 1141.32 41.1109 1141.09 41.0517C1140.86 40.9925 1140.67 40.9249 1140.53 40.8488C1140.39 40.7726 1140.31 40.6712 1140.31 40.5443C1140.31 40.4259 1140.37 40.3371 1140.48 40.2779C1140.59 40.2103 1140.75 40.1765 1140.97 40.1765C1141.2 40.1765 1141.43 40.223 1141.67 40.316C1141.92 40.409 1142.14 40.5697 1142.33 40.798L1143.43 39.6818C1143.16 39.3266 1142.79 39.0602 1142.34 38.8826C1141.9 38.6966 1141.42 38.6035 1140.9 38.6035C1140.4 38.6035 1139.96 38.6881 1139.59 38.8572C1139.22 39.0264 1138.93 39.2589 1138.73 39.5549C1138.53 39.8424 1138.42 40.1849 1138.42 40.5824C1138.42 40.9545 1138.5 41.2632 1138.64 41.5084C1138.78 41.7452 1138.97 41.9312 1139.2 42.0665C1139.43 42.2018 1139.67 42.3076 1139.92 42.3836C1140.17 42.4598 1140.42 42.5316 1140.64 42.5993C1140.87 42.6585 1141.06 42.7304 1141.2 42.815C1141.35 42.8911 1141.43 43.0052 1141.43 43.1574C1141.43 43.2758 1141.37 43.3688 1141.24 43.4365C1141.12 43.5042 1140.95 43.538 1140.72 43.538C1140.39 43.538 1140.09 43.4788 1139.81 43.3604C1139.53 43.2336 1139.29 43.0602 1139.08 42.8403L1137.98 43.9566C1138.19 44.1849 1138.45 44.3879 1138.74 44.5655C1139.05 44.7346 1139.37 44.8657 1139.72 44.9587Z" fill="#AAD9D1"/>
<path d="M1146.85 45.0854C1146.28 45.0854 1145.78 44.9713 1145.34 44.743C1144.91 44.5062 1144.57 44.1848 1144.32 43.7789C1144.08 43.3645 1143.96 42.891 1143.96 42.3582V38.781H1145.9V42.3328C1145.9 42.5442 1145.93 42.726 1146 42.8782C1146.07 43.0305 1146.18 43.1489 1146.33 43.2334C1146.47 43.318 1146.64 43.3603 1146.85 43.3603C1147.13 43.3603 1147.36 43.2715 1147.53 43.0939C1147.7 42.9078 1147.79 42.6542 1147.79 42.3328V38.781H1149.73V42.3455C1149.73 42.8867 1149.6 43.3645 1149.36 43.7789C1149.11 44.1848 1148.78 44.5062 1148.34 44.743C1147.91 44.9713 1147.41 45.0854 1146.85 45.0854Z" fill="#AAD9D1"/>
<path d="M1152.63 38.7809H1150.69V44.9459H1152.63V41.3433C1152.63 41.1319 1152.67 40.9543 1152.76 40.8105C1152.85 40.6668 1152.98 40.5568 1153.13 40.4807C1153.28 40.3961 1153.45 40.3539 1153.65 40.3539C1153.93 40.3539 1154.16 40.4427 1154.34 40.6203C1154.54 40.7894 1154.64 41.0304 1154.64 41.3433V44.9459H1156.58V41.3433C1156.58 41.1319 1156.62 40.9543 1156.7 40.8105C1156.8 40.6668 1156.92 40.5568 1157.07 40.4807C1157.22 40.3961 1157.4 40.3539 1157.59 40.3539C1157.87 40.3539 1158.1 40.4427 1158.29 40.6203C1158.48 40.7894 1158.58 41.0304 1158.58 41.3433V44.9459H1160.52V41.1277C1160.52 40.6118 1160.41 40.1721 1160.19 39.8084C1159.98 39.4363 1159.69 39.153 1159.32 38.9585C1158.95 38.7555 1158.54 38.6541 1158.06 38.6541C1157.58 38.6541 1157.14 38.7598 1156.76 38.9712C1156.5 39.1059 1156.28 39.2797 1156.09 39.4927C1155.92 39.2699 1155.7 39.0877 1155.45 38.9458C1155.11 38.7513 1154.73 38.6541 1154.29 38.6541C1153.84 38.6541 1153.43 38.7513 1153.06 38.9458C1152.91 39.0267 1152.76 39.1237 1152.63 39.2366V38.7809Z" fill="#AAD9D1"/>
</g>
<g clip-path="url(#clip7_4111_158)">
<path d="M1290.64 44.8096H1292.51V37.7742H1290.64V44.8096ZM1290.64 36.6771H1292.51V35.0039H1290.64V36.6771Z" fill="#AAD9D1"/>
<path d="M1293.71 47.1135H1295.57V44.014H1295.6C1296 44.6175 1296.64 45.0152 1297.63 45.0152C1299.44 45.0152 1300.68 43.5752 1300.68 41.2986C1300.68 39.1043 1299.48 37.582 1297.62 37.582C1296.66 37.582 1296 38.0346 1295.55 38.6518H1295.51V37.774H1293.71V47.1135ZM1297.23 43.4655C1296.12 43.4655 1295.53 42.6289 1295.53 41.3535C1295.53 40.0918 1296 39.0906 1297.17 39.0906C1298.32 39.0906 1298.78 40.0232 1298.78 41.3535C1298.78 42.6838 1298.18 43.4655 1297.23 43.4655Z" fill="#AAD9D1"/>
<path d="M1304.4 45.0152C1306.15 45.0152 1307.36 44.1649 1307.36 42.7523C1307.36 41.1066 1306.06 40.7775 1304.88 40.5306C1303.88 40.3249 1302.94 40.27 1302.94 39.6666C1302.94 39.1592 1303.42 38.8849 1304.15 38.8849C1304.95 38.8849 1305.43 39.1592 1305.51 39.9135H1307.19C1307.06 38.5009 1306.03 37.582 1304.18 37.582C1302.57 37.582 1301.31 38.3089 1301.31 39.8312C1301.31 41.3672 1302.55 41.71 1303.81 41.9569C1304.77 42.1489 1305.66 42.2175 1305.66 42.8895C1305.66 43.3832 1305.19 43.6986 1304.37 43.6986C1303.53 43.6986 1302.96 43.342 1302.83 42.5329H1301.11C1301.21 44.0278 1302.35 45.0152 1304.4 45.0152Z" fill="#AAD9D1"/>
<path d="M1314.44 44.8096V37.7742H1312.57V41.8336C1312.57 42.7662 1312.04 43.4244 1311.16 43.4244C1310.37 43.4244 1310 42.9719 1310 42.1491V37.7742H1308.15V42.4645C1308.15 44.0005 1309.02 45.0016 1310.59 45.0016C1311.57 45.0016 1312.12 44.6313 1312.6 43.9868H1312.64V44.8096H1314.44Z" fill="#AAD9D1"/>
<path d="M1315.65 44.8095H1317.51V40.7226C1317.51 39.79 1318.02 39.1866 1318.77 39.1866C1319.46 39.1866 1319.86 39.598 1319.86 40.3935V44.8095H1321.72V40.7226C1321.72 39.79 1322.2 39.1866 1322.98 39.1866C1323.67 39.1866 1324.07 39.598 1324.07 40.3935V44.8095H1325.93V40.078C1325.93 38.542 1325.1 37.582 1323.61 37.582C1322.72 37.582 1321.98 38.0483 1321.5 38.8163H1321.48C1321.13 38.0758 1320.42 37.582 1319.53 37.582C1318.55 37.582 1317.87 38.0758 1317.48 38.7203H1317.44V37.774H1315.65V44.8095Z" fill="#AAD9D1"/>
<path d="M1242.03 44.8096H1243.89V35.0039H1242.03V44.8096Z" fill="#AAD9D1"/>
<path d="M1248.46 45.0152C1250.64 45.0152 1252.13 43.3969 1252.13 41.2986C1252.13 39.2003 1250.64 37.582 1248.46 37.582C1246.27 37.582 1244.78 39.2003 1244.78 41.2986C1244.78 43.3969 1246.27 45.0152 1248.46 45.0152ZM1248.46 43.5889C1247.3 43.5889 1246.67 42.67 1246.67 41.2986C1246.67 39.9272 1247.3 38.9946 1248.46 38.9946C1249.59 38.9946 1250.24 39.9272 1250.24 41.2986C1250.24 42.67 1249.59 43.5889 1248.46 43.5889Z" fill="#AAD9D1"/>
<path d="M1256.1 47.2095C1257.14 47.2095 1258.04 46.9626 1258.63 46.414C1259.16 45.934 1259.47 45.262 1259.47 44.2746V37.774H1257.67V38.5146H1257.65C1257.22 37.9249 1256.58 37.582 1255.7 37.582C1253.92 37.582 1252.66 38.926 1252.66 41.0243C1252.66 43.15 1254.19 44.3843 1255.75 44.3843C1256.65 44.3843 1257.18 44.0278 1257.59 43.5615H1257.63V44.3295C1257.63 45.2895 1257.13 45.7969 1256.07 45.7969C1255.21 45.7969 1254.81 45.454 1254.66 45.0152H1252.81C1253 46.3866 1254.18 47.2095 1256.1 47.2095ZM1256.07 42.8895C1255.11 42.8895 1254.48 42.19 1254.48 40.9969C1254.48 39.8175 1255.11 39.0769 1256.06 39.0769C1257.18 39.0769 1257.73 39.9546 1257.73 40.9832C1257.73 42.0255 1257.25 42.8895 1256.07 42.8895Z" fill="#AAD9D1"/>
<path d="M1264 45.0152C1266.19 45.0152 1267.68 43.3969 1267.68 41.2986C1267.68 39.2003 1266.19 37.582 1264 37.582C1261.82 37.582 1260.33 39.2003 1260.33 41.2986C1260.33 43.3969 1261.82 45.0152 1264 45.0152ZM1264 43.5889C1262.85 43.5889 1262.22 42.67 1262.22 41.2986C1262.22 39.9272 1262.85 38.9946 1264 38.9946C1265.14 38.9946 1265.79 39.9272 1265.79 41.2986C1265.79 42.67 1265.14 43.5889 1264 43.5889Z" fill="#AAD9D1"/>
<path d="M1326.61 36.619C1326.61 36.3034 1326.87 36.0476 1327.18 36.0476H1328.32C1328.64 36.0476 1328.9 36.3034 1328.9 36.619C1328.9 36.9346 1328.64 37.1905 1328.32 37.1905H1327.18C1326.87 37.1905 1326.61 36.9346 1326.61 36.619Z" fill="#AAD9D1"/>
<path fill-rule="evenodd" clip-rule="evenodd" d="M1278.99 33C1283.41 33 1286.99 36.5817 1286.99 41C1286.99 45.4183 1283.41 49 1278.99 49C1274.57 49 1270.99 45.4183 1270.99 41C1270.99 36.5817 1274.57 33 1278.99 33ZM1278.7 33.5986C1277.79 33.7271 1276.92 34.4604 1276.25 35.687C1276.05 36.0427 1275.87 36.4358 1275.72 36.8602C1276.64 36.6297 1277.64 36.4938 1278.7 36.4727V33.5986ZM1275.04 37.0523C1275.23 36.4518 1275.47 35.8994 1275.74 35.4083C1276.07 34.8002 1276.47 34.2752 1276.92 33.8719C1274.49 34.5781 1272.57 36.4947 1271.86 38.9263C1272.27 38.4791 1272.79 38.0822 1273.4 37.7478C1273.89 37.4777 1274.44 37.2436 1275.04 37.0523ZM1274.85 37.7284C1274.62 38.6457 1274.48 39.6534 1274.46 40.7108H1271.59C1271.72 39.7982 1272.45 38.9291 1273.68 38.2546C1274.03 38.0589 1274.43 37.8823 1274.85 37.7284ZM1275.04 40.7108C1275.07 39.5568 1275.23 38.4734 1275.51 37.5161C1276.46 37.2412 1277.55 37.075 1278.7 37.0512V38.3003C1278.27 39.4025 1277.39 40.2805 1276.29 40.7108H1275.04ZM1274.46 41.2892H1271.59C1271.72 42.2018 1272.45 43.0708 1273.68 43.7454C1274.03 43.9411 1274.43 44.1177 1274.85 44.2716C1274.62 43.3543 1274.48 42.3466 1274.46 41.2892ZM1275.51 44.4839C1275.23 43.5266 1275.07 42.4432 1275.04 41.2892H1276.29C1277.39 41.7195 1278.27 42.5975 1278.7 43.6997V44.9488C1277.55 44.925 1276.46 44.7588 1275.51 44.4839ZM1275.04 44.9477C1274.44 44.7564 1273.89 44.5223 1273.4 44.2522C1272.79 43.9178 1272.27 43.5209 1271.86 43.0737C1272.57 45.5053 1274.49 47.4219 1276.92 48.1281C1276.47 47.7248 1276.07 47.1998 1275.74 46.5917C1275.47 46.1006 1275.23 45.5482 1275.04 44.9477ZM1278.7 48.4014C1277.79 48.2729 1276.92 47.5396 1276.25 46.313C1276.05 45.9573 1275.87 45.5642 1275.72 45.1398C1276.64 45.3703 1277.64 45.5062 1278.7 45.5272V48.4014ZM1281.06 48.1281C1281.51 47.7248 1281.91 47.1998 1282.24 46.5917C1282.51 46.1006 1282.75 45.5482 1282.94 44.9477C1283.54 44.7564 1284.09 44.5223 1284.58 44.2522C1285.19 43.9178 1285.72 43.5209 1286.12 43.0737C1285.41 45.5053 1283.5 47.4219 1281.06 48.1281ZM1282.26 45.1398C1282.11 45.5642 1281.93 45.9573 1281.74 46.313C1281.06 47.5396 1280.19 48.2729 1279.28 48.4014V45.5272C1280.34 45.5062 1281.35 45.3703 1282.26 45.1398ZM1283.13 44.2716C1283.56 44.1177 1283.95 43.9411 1284.3 43.7454C1285.53 43.0709 1286.26 42.2018 1286.39 41.2892H1283.52C1283.5 42.3466 1283.36 43.3543 1283.13 44.2716ZM1282.94 41.2892C1282.92 42.4432 1282.75 43.5266 1282.47 44.4839C1281.52 44.7588 1280.43 44.925 1279.28 44.9488V43.7006C1279.71 42.598 1280.59 41.7196 1281.69 41.2892H1282.94ZM1283.52 40.7108H1286.39C1286.26 39.7982 1285.53 38.9291 1284.3 38.2546C1283.95 38.0589 1283.56 37.8823 1283.13 37.7284C1283.36 38.6457 1283.5 39.6534 1283.52 40.7108ZM1282.47 37.5161C1282.75 38.4734 1282.92 39.5568 1282.94 40.7108H1281.69C1280.59 40.2804 1279.71 39.402 1279.28 38.2994V37.0512C1280.43 37.075 1281.52 37.2412 1282.47 37.5161ZM1282.94 37.0523C1283.54 37.2436 1284.09 37.4777 1284.58 37.7478C1285.19 38.0822 1285.72 38.4791 1286.12 38.9263C1285.41 36.4947 1283.5 34.5781 1281.06 33.8719C1281.51 34.2752 1281.91 34.8002 1282.24 35.4083C1282.51 35.8994 1282.75 36.4518 1282.94 37.0523ZM1279.28 33.5986C1280.19 33.7271 1281.06 34.4604 1281.74 35.687C1281.93 36.0427 1282.11 36.4358 1282.26 36.8602C1281.35 36.6297 1280.34 36.4938 1279.28 36.4727V33.5986Z" fill="#AAD9D1"/>
</g>
<defs>
<clipPath id="clip0_4111_158">
<rect width="70.4" height="16" fill="white" transform="translate(111.1 33)"/>
</clipPath>
<clipPath id="clip1_4111_158">
<rect width="87" height="16" fill="white" transform="translate(262.5 33)"/>
</clipPath>
<clipPath id="clip2_4111_158">
<rect width="70.4" height="16" fill="white" transform="translate(430.5 33)"/>
</clipPath>
<clipPath id="clip3_4111_158">
<rect width="87.2" height="16" fill="white" transform="translate(581.9 33)"/>
</clipPath>
<clipPath id="clip4_4111_158">
<rect width="80.8" height="16" fill="white" transform="translate(750.1 33)"/>
</clipPath>
<clipPath id="clip5_4111_158">
<rect width="87" height="16" fill="white" transform="translate(911.9 33)"/>
</clipPath>
<clipPath id="clip6_4111_158">
<rect width="80.8" height="16" fill="white" transform="translate(1079.9 33)"/>
</clipPath>
<clipPath id="clip7_4111_158">
<rect width="87.2" height="16" fill="white" transform="translate(1241.7 33)"/>
</clipPath>
</defs>
</svg>
