<svg width="41" height="40" viewBox="0 0 41 40" fill="none" xmlns="http://www.w3.org/2000/svg">
<rect x="0.351074" width="40" height="40" rx="20" fill="#017373"/>
<path d="M28.6845 14.8333C28.0581 15.105 27.3957 15.2847 26.7178 15.3666C27.433 14.9394 27.9689 14.2672 28.2262 13.4749C27.5541 13.875 26.8185 14.1568 26.0512 14.3083C25.5383 13.7521 24.8553 13.3818 24.1093 13.2556C23.3634 13.1294 22.5966 13.2544 21.9293 13.6109C21.262 13.9674 20.7319 14.5354 20.4222 15.2256C20.1124 15.9159 20.0406 16.6894 20.2178 17.4249C18.859 17.3562 17.5299 17.0024 16.3167 16.3865C15.1035 15.7706 14.0335 14.9063 13.1762 13.8499C12.8754 14.3751 12.7174 14.9698 12.7178 15.5749C12.7168 16.1369 12.8547 16.6904 13.1193 17.1862C13.3839 17.682 13.767 18.1047 14.2345 18.4166C13.6911 18.4018 13.1594 18.256 12.6845 17.9916V18.0333C12.6886 18.8207 12.9645 19.5825 13.4656 20.1899C13.9667 20.7973 14.6622 21.213 15.4345 21.3666C15.1372 21.4571 14.8286 21.5048 14.5178 21.5083C14.3027 21.5058 14.0882 21.4862 13.8762 21.4499C14.0961 22.1273 14.5217 22.7192 15.0937 23.1434C15.6658 23.5676 16.3558 23.8029 17.0678 23.8166C15.8655 24.7627 14.3811 25.279 12.8512 25.2833C12.5726 25.2842 12.2943 25.2675 12.0178 25.2333C13.5798 26.2418 15.4002 26.7772 17.2595 26.7749C18.5426 26.7883 19.8154 26.5458 21.0038 26.0617C22.1921 25.5775 23.272 24.8615 24.1805 23.9553C25.089 23.0492 25.8078 21.9711 26.295 20.784C26.7821 19.5969 27.0279 18.3247 27.0178 17.0416C27.0178 16.8999 27.0178 16.7499 27.0178 16.5999C27.6717 16.1123 28.2357 15.5145 28.6845 14.8333Z" fill="#EFECE6"/>
</svg>
